<svg width="692" height="198" viewBox="0 0 692 198" fill="none" xmlns="http://www.w3.org/2000/svg">
<g clip-path="url(#clip0_20_533)">
<path d="M686.538 123.537C688.187 123.052 690.611 122.179 692.842 120.239C693.23 119.852 692.842 119.27 692.357 119.561C691.969 119.755 691.581 119.367 691.678 118.979C691.678 118.785 691.872 118.591 691.969 118.3C692.163 117.815 691.484 117.427 691.193 117.912C689.932 119.852 687.993 121.791 685.18 122.179C684.986 122.179 684.889 122.179 684.792 121.985C683.92 120.918 679.168 115.875 667.433 116.942C665.494 117.136 663.651 117.524 661.809 118.106C659.675 118.785 658.317 118.688 658.317 118.688C657.251 118.882 656.378 118.688 655.408 118.203L654.632 117.912L632.327 79.6056L655.311 40.6203L655.99 40.2325C656.96 39.6506 657.736 39.2627 658.802 39.2627C658.802 39.2627 660.16 38.9717 662.391 39.2627C664.33 39.5536 666.27 39.6506 668.306 39.5536C679.944 38.7778 683.823 33.056 684.502 31.8923C684.502 31.7953 684.695 31.6984 684.889 31.6984C687.702 31.6984 689.932 33.347 691.484 34.9956C691.872 35.3835 692.454 34.9956 692.163 34.5107C692.066 34.3168 691.969 34.1228 691.775 33.9289C691.581 33.541 691.872 33.1531 692.357 33.25C692.842 33.444 693.23 32.7652 692.745 32.4742C690.32 30.9226 687.702 30.3407 686.053 30.1467C685.665 30.1467 685.471 29.7588 685.762 29.4679C687.12 27.1404 685.374 25.4918 684.599 25.0069C668.015 14.8242 657.154 20.255 653.469 22.9704C653.372 22.9704 653.081 23.2613 652.693 23.4553C645.71 27.6253 641.249 33.6379 636.594 41.2022L622.92 63.3132L607.307 39.8444C603.525 33.3469 591.887 12.3999 559.885 12.3999C537.095 12.3999 519.445 27.8191 515.469 55.9429C515.178 57.4946 514.984 126.737 514.984 128.289V134.786C524.197 134.786 531.567 127.319 531.567 118.203V83.1938H562.794V68.5501H531.858V58.9493C533.022 51.385 538.55 29.3711 559.4 29.3711C575.886 29.3711 579.668 34.6082 585.099 40.5235C589.195 44.9846 611.38 77.5693 613.223 79.7998L612.835 79.6056L578.601 134.786L599.937 134.495L622.436 96.4798L636.013 120.239C640.57 127.028 647.068 132.265 654.632 135.271C655.02 135.465 655.311 135.562 655.505 135.659C659.578 137.695 671.119 141.381 685.956 128.774C686.635 128.192 688.09 126.252 686.344 124.216C686.053 123.925 686.15 123.537 686.538 123.44V123.537ZM679.459 33.0561C673.252 38.6808 670.44 34.8987 670.44 34.8987C672.088 29.5649 679.459 33.0561 679.459 33.0561ZM670.44 121.209C670.44 121.209 672.573 117.039 679.653 121.694C679.653 121.694 672.961 126.349 670.44 121.209Z" fill="#1A1A1A"/>
<path d="M1 27.3347H46.2888C73.5396 27.3347 85.5649 42.3663 85.5649 62.8287C85.5649 83.291 73.5396 98.5166 46.2888 98.5166H17.8742V118.494C17.8742 127.804 10.3099 135.368 1 135.368L1 27.3347ZM46.5797 83.0001C62.775 83.0001 68.5937 74.3691 68.5937 62.8287C68.5937 51.2883 62.775 42.8512 46.5797 42.8512H17.8742V83.0001H46.5797Z" fill="#1A1A1A" stroke="#1A1A1A" stroke-width="2"/>
<path d="M91.8682 27.3347H108.742V119.852H153.837C162.371 119.852 169.354 126.834 169.354 135.368H91.8682V27.3347Z" fill="#1A1A1A" stroke="#1A1A1A" stroke-width="2"/>
<path d="M173.718 71.8476C173.718 43.239 190.204 25.2981 220.462 25.2981C250.719 25.2981 267.69 43.336 267.69 71.8476V135.465H250.816V101.232H190.01V119.076C190.01 128.095 182.737 135.465 173.621 135.465V71.8476H173.718ZM250.913 85.7154V71.8476C250.913 52.355 240.633 40.8146 220.558 40.8146C200.484 40.8146 190.204 52.355 190.204 71.8476V85.7154H251.01H250.913Z" fill="#1A1A1A" stroke="#1A1A1A" stroke-width="2"/>
<path d="M276.612 70.0048C276.612 42.56 293.001 25.2009 322.192 25.2009C351.382 25.2009 367.965 42.56 367.965 70.0048V135.368H351.091V70.0048C351.091 51.8699 341.199 40.8144 322.192 40.8144C303.184 40.8144 293.486 51.8699 293.486 70.0048V119.076C293.486 128.095 286.213 135.465 277.097 135.465H276.612V70.1018V70.0048Z" fill="#1A1A1A" stroke="#1A1A1A" stroke-width="2"/>
<path d="M378.148 137.211V48.5729C378.148 34.511 389.591 23.0676 403.653 23.0676H430.516C451.754 23.0676 464.361 34.608 464.361 51.8701C464.361 69.1322 460.288 72.9144 450.3 77.4724V77.8602C463.489 81.7394 471.344 92.407 471.344 106.469C471.344 120.531 459.707 137.211 437.983 137.211H401.52V122.664H434.977C447.584 122.664 456.312 114.033 456.312 104.917C456.312 95.8012 446.421 86.9762 435.365 86.9762H418.685L418.491 70.4899H431.583C442.444 70.4899 452.142 67.4836 452.142 54.6825C452.142 41.8814 443.608 38.875 431.292 38.875H402.392C397.544 38.875 393.567 42.8512 393.567 47.7001V119.367C393.567 129.259 388.137 137.308 378.245 137.308L378.148 137.211Z" fill="#1A1A1A" stroke="#1A1A1A" stroke-width="2"/>
<circle cx="489.77" cy="77.3752" r="8.72803" fill="#1A1A1A"/>
<path d="M6.22606 191.318C4.65896 191.318 3.44128 190.852 2.57302 189.92C1.70476 188.988 1.27063 187.686 1.27063 186.013V173.751C1.27063 172.078 1.69417 170.776 2.54125 169.844C3.40951 168.912 4.63778 168.446 6.22606 168.446C7.81435 168.446 9.03203 168.912 9.87911 169.844C10.7474 170.776 11.1815 172.078 11.1815 173.751V176.038H8.83085V173.592C8.83085 172.661 8.5979 171.951 8.132 171.464C7.68728 170.956 7.07315 170.702 6.2896 170.702C5.50604 170.702 4.88132 170.956 4.41542 171.464C3.9707 171.951 3.74835 172.661 3.74835 173.592V186.172C3.74835 187.103 3.9707 187.823 4.41542 188.332C4.88132 188.819 5.50604 189.062 6.2896 189.062C7.07315 189.062 7.68728 188.819 8.132 188.332C8.5979 187.823 8.83085 187.103 8.83085 186.172V183.059H11.1815V186.013C11.1815 187.686 10.7474 188.988 9.87911 189.92C9.03203 190.852 7.81435 191.318 6.22606 191.318ZM20.7695 191.318C19.1177 191.318 17.8683 190.852 17.0212 189.92C16.1741 188.967 15.7505 187.601 15.7505 185.822V168.764H18.2283V186.013C18.2283 188.046 19.0859 189.062 20.8013 189.062C22.5166 189.062 23.3743 188.046 23.3743 186.013V168.764H25.7885V185.822C25.7885 187.601 25.3544 188.967 24.4861 189.92C23.639 190.852 22.4002 191.318 20.7695 191.318ZM30.2776 185.917V184.679H32.6283V186.108C32.6283 188.078 33.4859 189.062 35.2013 189.062C36.9378 189.062 37.8061 188.067 37.8061 186.076C37.8061 185.081 37.5519 184.181 37.0437 183.376C36.5778 182.593 35.6884 181.661 34.3754 180.581C32.8506 179.331 31.7812 178.198 31.1671 177.182C30.5741 176.187 30.2776 175.043 30.2776 173.751C30.2776 172.078 30.7117 170.776 31.58 169.844C32.4483 168.912 33.6765 168.446 35.2648 168.446C36.8531 168.446 38.0602 168.912 38.8861 169.844C39.7332 170.776 40.1567 172.099 40.1567 173.815V174.704H37.8061V173.656C37.8061 171.686 36.959 170.702 35.2648 170.702C33.5707 170.702 32.7236 171.665 32.7236 173.592C32.7236 174.503 32.9777 175.34 33.4859 176.102C33.9942 176.864 34.9154 177.785 36.2496 178.866C37.7955 180.136 38.8437 181.29 39.3944 182.328C39.9873 183.323 40.2838 184.509 40.2838 185.886C40.2838 187.622 39.8391 188.967 38.9496 189.92C38.0814 190.852 36.8425 191.318 35.2331 191.318C33.6236 191.318 32.3953 190.852 31.5482 189.92C30.7012 188.988 30.2776 187.654 30.2776 185.917ZM50.2324 191H47.7547V171.019H43.8157V168.764H54.1713V171.019H50.2324V191ZM63.0821 191.318C61.4514 191.318 60.1914 190.841 59.302 189.888C58.4337 188.935 57.9996 187.58 57.9996 185.822V173.91C57.9996 172.152 58.4337 170.808 59.302 169.876C60.1914 168.923 61.4514 168.446 63.0821 168.446C64.7339 168.446 65.9939 168.923 66.8622 169.876C67.7516 170.808 68.1964 172.152 68.1964 173.91V185.822C68.1964 187.58 67.7516 188.935 66.8622 189.888C65.9939 190.841 64.7339 191.318 63.0821 191.318ZM63.0821 189.062C64.8398 189.062 65.7186 188.035 65.7186 185.981V173.751C65.7186 171.718 64.8398 170.702 63.0821 170.702C61.3456 170.702 60.4773 171.718 60.4773 173.751V185.981C60.4773 188.035 61.3456 189.062 63.0821 189.062ZM75.3878 191H73.196V168.764H76.7855L80.0573 186.521L83.2974 168.764H86.9187V191H84.5363V172.449L81.0103 191H78.9138L75.3878 172.449V191Z" fill="#1A1A1A"/>
<path d="M145.246 191H142.768V168.764H145.246V191ZM152.738 191H150.483V168.764H153.659L158.678 184.647V168.764H160.934V191H158.361L152.738 172.925V191ZM171.632 191H169.155V171.019H165.216V168.764H175.571V171.019H171.632V191ZM188.957 191H179.84V168.764H188.957V171.019H182.318V178.262H187.718V180.517H182.318V188.745H188.957V191ZM195.864 191H193.386V168.764H198.246C200.004 168.764 201.275 169.177 202.058 170.003C202.863 170.808 203.265 172.078 203.265 173.815V175.181C203.265 177.637 202.408 179.13 200.692 179.66V179.691C202.429 180.136 203.297 181.682 203.297 184.329V188.3C203.297 189.528 203.403 190.428 203.615 191H201.105C200.915 190.365 200.819 189.465 200.819 188.3V184.202C200.819 183.016 200.597 182.18 200.152 181.693C199.708 181.206 198.945 180.962 197.865 180.962H195.864V191ZM195.864 171.019V178.707H197.865C198.882 178.707 199.623 178.474 200.089 178.008C200.555 177.521 200.788 176.737 200.788 175.657V174.069C200.788 172.989 200.586 172.216 200.184 171.75C199.782 171.263 199.115 171.019 198.183 171.019H195.864ZM219.094 191H216.585L215.759 186.267H210.613L209.787 191H207.468L211.597 168.764H214.933L219.094 191ZM213.154 171.591L210.994 184.107H215.377L213.154 171.591ZM228.003 191.318C226.436 191.318 225.218 190.852 224.35 189.92C223.482 188.988 223.048 187.686 223.048 186.013V173.751C223.048 172.078 223.471 170.776 224.318 169.844C225.186 168.912 226.415 168.446 228.003 168.446C229.591 168.446 230.809 168.912 231.656 169.844C232.524 170.776 232.958 172.078 232.958 173.751V176.038H230.608V173.592C230.608 172.661 230.375 171.951 229.909 171.464C229.464 170.956 228.85 170.702 228.067 170.702C227.283 170.702 226.658 170.956 226.192 171.464C225.748 171.951 225.525 172.661 225.525 173.592V186.172C225.525 187.103 225.748 187.823 226.192 188.332C226.658 188.819 227.283 189.062 228.067 189.062C228.85 189.062 229.464 188.819 229.909 188.332C230.375 187.823 230.608 187.103 230.608 186.172V183.059H232.958V186.013C232.958 187.686 232.524 188.988 231.656 189.92C230.809 190.852 229.591 191.318 228.003 191.318ZM243.118 191H240.64V171.019H236.701V168.764H247.056V171.019H243.118V191ZM253.803 191H251.325V168.764H253.803V191ZM265.361 191H262.057L258.086 168.764H260.596L263.804 187.633L267.012 168.764H269.3L265.361 191ZM282.695 191H273.578V168.764H282.695V171.019H276.056V178.262H281.456V180.517H276.056V188.745H282.695V191Z" fill="#1A1A1A"/>
<path d="M335.339 191H326.223V168.764H335.339V171.019H328.7V178.262H334.1V180.517H328.7V188.745H335.339V191ZM341.228 191H338.845L343.229 179.628L339.036 168.764H341.673L344.786 177.087L347.962 168.764H350.345L346.151 179.628L350.535 191H347.899L344.563 182.137L341.228 191ZM357.282 191H354.804V168.764H359.664C363.01 168.764 364.683 170.564 364.683 174.164V176.07C364.683 179.649 363.01 181.439 359.664 181.439H357.282V191ZM357.282 171.019V179.183H359.664C360.554 179.183 361.2 178.961 361.602 178.516C362.004 178.05 362.206 177.277 362.206 176.197V174.005C362.206 172.925 362.004 172.163 361.602 171.718C361.2 171.252 360.554 171.019 359.664 171.019H357.282ZM378.305 191H369.188V168.764H378.305V171.019H371.666V178.262H377.066V180.517H371.666V188.745H378.305V191ZM385.212 191H382.734V168.764H387.594C389.352 168.764 390.623 169.177 391.406 170.003C392.211 170.808 392.613 172.078 392.613 173.815V175.181C392.613 177.637 391.756 179.13 390.04 179.66V179.691C391.777 180.136 392.645 181.682 392.645 184.329V188.3C392.645 189.528 392.751 190.428 392.963 191H390.453C390.263 190.365 390.167 189.465 390.167 188.3V184.202C390.167 183.016 389.945 182.18 389.5 181.693C389.056 181.206 388.293 180.962 387.213 180.962H385.212V191ZM385.212 171.019V178.707H387.213C388.23 178.707 388.971 178.474 389.437 178.008C389.903 177.521 390.136 176.737 390.136 175.657V174.069C390.136 172.989 389.935 172.216 389.532 171.75C389.13 171.263 388.463 171.019 387.531 171.019H385.212ZM400.185 191H397.708V168.764H400.185V191ZM414.539 191H405.422V168.764H414.539V171.019H407.9V178.262H413.3V180.517H407.9V188.745H414.539V191ZM421.224 191H418.968V168.764H422.145L427.164 184.647V168.764H429.419V191H426.846L421.224 172.925V191ZM439.387 191.318C437.82 191.318 436.603 190.852 435.734 189.92C434.866 188.988 434.432 187.686 434.432 186.013V173.751C434.432 172.078 434.855 170.776 435.703 169.844C436.571 168.912 437.799 168.446 439.387 168.446C440.976 168.446 442.193 168.912 443.04 169.844C443.909 170.776 444.343 172.078 444.343 173.751V176.038H441.992V173.592C441.992 172.661 441.759 171.951 441.293 171.464C440.849 170.956 440.234 170.702 439.451 170.702C438.667 170.702 438.043 170.956 437.577 171.464C437.132 171.951 436.91 172.661 436.91 173.592V186.172C436.91 187.103 437.132 187.823 437.577 188.332C438.043 188.819 438.667 189.062 439.451 189.062C440.234 189.062 440.849 188.819 441.293 188.332C441.759 187.823 441.992 187.103 441.992 186.172V183.059H444.343V186.013C444.343 187.686 443.909 188.988 443.04 189.92C442.193 190.852 440.976 191.318 439.387 191.318ZM458.156 191H449.039V168.764H458.156V171.019H451.517V178.262H456.917V180.517H451.517V188.745H458.156V191ZM462.012 185.917V184.679H464.363V186.108C464.363 188.078 465.22 189.062 466.936 189.062C468.672 189.062 469.54 188.067 469.54 186.076C469.54 185.081 469.286 184.181 468.778 183.376C468.312 182.593 467.423 181.661 466.11 180.581C464.585 179.331 463.515 178.198 462.901 177.182C462.308 176.187 462.012 175.043 462.012 173.751C462.012 172.078 462.446 170.776 463.314 169.844C464.183 168.912 465.411 168.446 466.999 168.446C468.587 168.446 469.794 168.912 470.62 169.844C471.467 170.776 471.891 172.099 471.891 173.815V174.704H469.54V173.656C469.54 171.686 468.693 170.702 466.999 170.702C465.305 170.702 464.458 171.665 464.458 173.592C464.458 174.503 464.712 175.34 465.22 176.102C465.728 176.864 466.65 177.785 467.984 178.866C469.53 180.136 470.578 181.29 471.129 182.328C471.722 183.323 472.018 184.509 472.018 185.886C472.018 187.622 471.573 188.967 470.684 189.92C469.816 190.852 468.577 191.318 466.967 191.318C465.358 191.318 464.13 190.852 463.283 189.92C462.435 188.988 462.012 187.654 462.012 185.917Z" fill="#1A1A1A"/>
</g>
<defs>
<clipPath id="clip0_20_533">
<rect width="692" height="198" fill="white"/>
</clipPath>
</defs>
</svg>
