<svg width="692" height="756" viewBox="0 0 692 756" fill="none" xmlns="http://www.w3.org/2000/svg">
<g clip-path="url(#clip0_20_494)">
<path d="M685.538 681.09C687.187 680.605 689.611 679.732 691.842 677.793C692.23 677.405 691.842 676.823 691.357 677.114C690.969 677.308 690.581 676.92 690.678 676.532C690.678 676.338 690.872 676.144 690.969 675.853C691.163 675.368 690.484 674.981 690.193 675.465C688.932 677.405 686.993 679.345 684.18 679.732C683.986 679.732 683.889 679.732 683.792 679.539C682.92 678.472 678.168 673.429 666.433 674.496C664.494 674.69 662.651 675.078 660.809 675.659C658.675 676.338 657.317 676.241 657.317 676.241C656.251 676.435 655.378 676.241 654.408 675.756L653.632 675.465L631.327 637.159L654.311 598.174L654.99 597.786C655.96 597.204 656.736 596.816 657.802 596.816C657.802 596.816 659.16 596.525 661.391 596.816C663.33 597.107 665.27 597.204 667.306 597.107C678.944 596.331 682.823 590.61 683.502 589.446C683.502 589.349 683.695 589.252 683.889 589.252C686.702 589.252 688.932 590.9 690.484 592.549C690.872 592.937 691.454 592.549 691.163 592.064C691.066 591.87 690.969 591.676 690.775 591.482C690.581 591.094 690.872 590.707 691.357 590.803C691.842 590.997 692.23 590.319 691.745 590.028C689.32 588.476 686.702 587.894 685.053 587.7C684.665 587.7 684.471 587.312 684.762 587.021C686.12 584.694 684.374 583.045 683.599 582.56C667.015 572.378 656.154 577.808 652.469 580.524C652.372 580.524 652.081 580.815 651.693 581.009C644.71 585.179 640.249 591.191 635.594 598.756L621.92 620.867L606.307 597.398C602.525 590.9 590.887 569.953 558.885 569.953C536.095 569.953 518.445 585.373 514.469 613.496C514.178 615.048 513.984 684.291 513.984 685.842V692.34C523.197 692.34 530.567 684.872 530.567 675.756V640.747H561.794V626.104H530.858V616.503C532.022 608.938 537.55 586.925 558.4 586.925C574.886 586.925 578.668 592.162 584.099 598.077C588.195 602.538 610.38 635.123 612.223 637.353L611.835 637.159L577.601 692.34L598.937 692.049L621.436 654.033L635.013 677.793C639.57 684.581 646.068 689.818 653.632 692.825C654.02 693.018 654.311 693.115 654.505 693.212C658.578 695.249 670.119 698.934 684.956 686.327C685.635 685.745 687.09 683.806 685.344 681.769C685.053 681.478 685.15 681.09 685.538 680.993V681.09ZM678.459 590.61C672.252 596.234 669.44 592.452 669.44 592.452C671.088 587.118 678.459 590.61 678.459 590.61ZM669.44 678.763C669.44 678.763 671.573 674.593 678.653 679.248C678.653 679.248 671.961 683.903 669.44 678.763Z" fill="#1A1A1A"/>
<path d="M0 584.888H45.2888C72.5396 584.888 84.5649 599.92 84.5649 620.382C84.5649 640.845 72.5396 656.07 45.2888 656.07H16.8742V676.048C16.8742 685.357 9.3099 692.922 0 692.922L0 584.888ZM45.5797 640.554C61.775 640.554 67.5937 631.923 67.5937 620.382C67.5937 608.842 61.775 600.405 45.5797 600.405H16.8742V640.554H45.5797Z" fill="#1A1A1A" stroke="#1A1A1A" stroke-width="2"/>
<path d="M90.8687 584.888H107.743V677.405H152.838C161.372 677.405 168.354 684.388 168.354 692.922H90.8687V584.888Z" fill="#1A1A1A" stroke="#1A1A1A" stroke-width="2"/>
<path d="M172.718 629.401C172.718 600.793 189.204 582.852 219.462 582.852C249.719 582.852 266.69 600.889 266.69 629.401V693.019H249.816V658.785H189.01V676.629C189.01 685.648 181.737 693.019 172.621 693.019V629.401H172.718ZM249.913 643.269V629.401C249.913 609.908 239.633 598.368 219.558 598.368C199.484 598.368 189.204 609.908 189.204 629.401V643.269H250.01H249.913Z" fill="#1A1A1A" stroke="#1A1A1A" stroke-width="2"/>
<path d="M275.612 627.558C275.612 600.113 292.001 582.754 321.192 582.754C350.382 582.754 366.965 600.113 366.965 627.558V692.921H350.091V627.558C350.091 609.423 340.199 598.368 321.192 598.368C302.184 598.368 292.486 609.423 292.486 627.558V676.629C292.486 685.648 285.213 693.018 276.097 693.018H275.612V627.655V627.558Z" fill="#1A1A1A" stroke="#1A1A1A" stroke-width="2"/>
<path d="M475.5 203.6C462.6 231.4 454.8 241.5 439.9 256.6C447.7 262.1 452.6 268.8 457.4 275.6C505.9 342.9 447.1 433.2 366.1 410.5C341.2 403.5 324.1 381.3 316.4 361.6C312.6 351.8 310.4 342.3 310 331.3V75.6C309.3 75.7 308.6 75.9 307.8 76C274.2 82.6 248 111.2 248.6 148.2V331.1C249.7 401.5 299.4 451.8 351.3 468.6C367.2 473.8 374.7 474.8 389.6 475.3C460.4 477.4 544 415 537 317.9C532.5 262.6 512.5 227.9 475.4 203.7L475.5 203.6Z" fill="#1A1A1A"/>
<path d="M174.4 143.7L173.6 436V440.4C173.6 440.4 173.6 440.4 173.6 440.5C173.6 441.1 174.1 447.1 174.8 451.5C175.6 456.4 175.9 461.4 175.6 466.4C174.7 483.6 179.3 529.2 245.2 561.2C248.3 562.7 257.1 564.8 261.6 555.8C262.3 554.4 263.6 554.2 264.5 555.4C268.4 560.3 275.4 567.5 285.5 572.1C287.3 572.9 288.9 570.4 287.2 569.2C285.9 568.2 286.6 566.2 288.2 566.2C289 566.2 289.8 566.2 290.8 566.2C292.8 566.1 293 563.2 291 562.9C282.4 561.4 272.9 557.6 267.2 548.8C266.9 548.3 266.9 547.7 267.2 547.2C269.6 542.6 279.8 518.9 258.7 480.3C255.1 473.8 250.8 467.6 245.9 462C240.4 455.7 238.5 450.8 238.5 450.8C236.4 447.4 235.9 444 235.9 439.9V436.5L236 146.8C236.3 135.8 236.9 125.5 241 115.8C251.3 91.9 270.2 72.3 295.2 64.9C380.5 39.7 446.5 142.5 379.4 209.2C379.4 209.2 378.6 210 377 211.3C367.8 218.9 356.3 223.2 344.4 223.7L337.9 224V285.3C357.7 285.3 377.3 281.7 395 272.8C427 256.5 468.4 222.8 468.4 157.3C472.3 -40.7 189.7 -58.4 174.6 144L174.4 143.7ZM248.1 496.2C248.1 496.2 265.7 497.3 260.4 528.6C260.4 528.6 234.4 512.4 248.1 496.2Z" fill="#1A1A1A"/>
<path d="M377.148 694.764V606.126C377.148 592.064 388.591 580.621 402.653 580.621H429.516C450.754 580.621 463.361 592.161 463.361 609.424C463.361 626.686 459.288 630.468 449.3 635.026V635.414C462.489 639.293 470.344 649.96 470.344 664.022C470.344 678.084 458.707 694.764 436.983 694.764H400.52V680.218H433.977C446.584 680.218 455.312 671.587 455.312 662.471C455.312 653.355 445.421 644.53 434.365 644.53H417.685L417.491 628.043H430.583C441.444 628.043 451.142 625.037 451.142 612.236C451.142 599.435 442.608 596.429 430.292 596.429H401.392C396.544 596.429 392.567 600.405 392.567 605.254V676.92C392.567 686.812 387.137 694.861 377.245 694.861L377.148 694.764Z" fill="#1A1A1A" stroke="#1A1A1A" stroke-width="2"/>
<circle cx="488.77" cy="634.929" r="8.72803" fill="#1A1A1A"/>
<path d="M6.22606 740.818C4.65896 740.818 3.44128 740.352 2.57302 739.42C1.70476 738.488 1.27063 737.186 1.27063 735.513V723.251C1.27063 721.578 1.69417 720.276 2.54125 719.344C3.40951 718.412 4.63778 717.946 6.22606 717.946C7.81435 717.946 9.03203 718.412 9.87911 719.344C10.7474 720.276 11.1815 721.578 11.1815 723.251V725.538H8.83085V723.092C8.83085 722.161 8.5979 721.451 8.132 720.964C7.68728 720.456 7.07315 720.202 6.2896 720.202C5.50604 720.202 4.88132 720.456 4.41542 720.964C3.9707 721.451 3.74835 722.161 3.74835 723.092V735.672C3.74835 736.603 3.9707 737.323 4.41542 737.832C4.88132 738.319 5.50604 738.562 6.2896 738.562C7.07315 738.562 7.68728 738.319 8.132 737.832C8.5979 737.323 8.83085 736.603 8.83085 735.672V732.559H11.1815V735.513C11.1815 737.186 10.7474 738.488 9.87911 739.42C9.03203 740.352 7.81435 740.818 6.22606 740.818ZM20.7695 740.818C19.1177 740.818 17.8683 740.352 17.0212 739.42C16.1741 738.467 15.7505 737.101 15.7505 735.322V718.264H18.2283V735.513C18.2283 737.546 19.0859 738.562 20.8013 738.562C22.5166 738.562 23.3743 737.546 23.3743 735.513V718.264H25.7885V735.322C25.7885 737.101 25.3544 738.467 24.4861 739.42C23.639 740.352 22.4002 740.818 20.7695 740.818ZM30.2776 735.417V734.179H32.6283V735.608C32.6283 737.578 33.4859 738.562 35.2013 738.562C36.9378 738.562 37.8061 737.567 37.8061 735.576C37.8061 734.581 37.5519 733.681 37.0437 732.876C36.5778 732.093 35.6884 731.161 34.3754 730.081C32.8506 728.831 31.7812 727.698 31.1671 726.682C30.5741 725.687 30.2776 724.543 30.2776 723.251C30.2776 721.578 30.7117 720.276 31.58 719.344C32.4483 718.412 33.6765 717.946 35.2648 717.946C36.8531 717.946 38.0602 718.412 38.8861 719.344C39.7332 720.276 40.1567 721.599 40.1567 723.315V724.204H37.8061V723.156C37.8061 721.186 36.959 720.202 35.2648 720.202C33.5707 720.202 32.7236 721.165 32.7236 723.092C32.7236 724.003 32.9777 724.84 33.4859 725.602C33.9942 726.364 34.9154 727.285 36.2496 728.366C37.7955 729.636 38.8437 730.79 39.3944 731.828C39.9873 732.823 40.2838 734.009 40.2838 735.386C40.2838 737.122 39.8391 738.467 38.9496 739.42C38.0814 740.352 36.8425 740.818 35.2331 740.818C33.6236 740.818 32.3953 740.352 31.5482 739.42C30.7012 738.488 30.2776 737.154 30.2776 735.417ZM50.2324 740.5H47.7547V720.519H43.8157V718.264H54.1713V720.519H50.2324V740.5ZM63.0821 740.818C61.4514 740.818 60.1914 740.341 59.302 739.388C58.4337 738.435 57.9996 737.08 57.9996 735.322V723.41C57.9996 721.652 58.4337 720.308 59.302 719.376C60.1914 718.423 61.4514 717.946 63.0821 717.946C64.7339 717.946 65.9939 718.423 66.8622 719.376C67.7516 720.308 68.1964 721.652 68.1964 723.41V735.322C68.1964 737.08 67.7516 738.435 66.8622 739.388C65.9939 740.341 64.7339 740.818 63.0821 740.818ZM63.0821 738.562C64.8398 738.562 65.7186 737.535 65.7186 735.481V723.251C65.7186 721.218 64.8398 720.202 63.0821 720.202C61.3456 720.202 60.4773 721.218 60.4773 723.251V735.481C60.4773 737.535 61.3456 738.562 63.0821 738.562ZM75.3878 740.5H73.196V718.264H76.7855L80.0573 736.021L83.2974 718.264H86.9187V740.5H84.5363V721.949L81.0103 740.5H78.9138L75.3878 721.949V740.5Z" fill="#1A1A1A"/>
<path d="M145.246 740.5H142.768V718.264H145.246V740.5ZM152.738 740.5H150.483V718.264H153.659L158.678 734.147V718.264H160.934V740.5H158.361L152.738 722.425V740.5ZM171.632 740.5H169.155V720.519H165.216V718.264H175.571V720.519H171.632V740.5ZM188.957 740.5H179.84V718.264H188.957V720.519H182.318V727.762H187.718V730.017H182.318V738.245H188.957V740.5ZM195.864 740.5H193.386V718.264H198.246C200.004 718.264 201.275 718.677 202.058 719.503C202.863 720.308 203.265 721.578 203.265 723.315V724.681C203.265 727.137 202.408 728.63 200.692 729.16V729.191C202.429 729.636 203.297 731.182 203.297 733.829V737.8C203.297 739.028 203.403 739.928 203.615 740.5H201.105C200.915 739.865 200.819 738.965 200.819 737.8V733.702C200.819 732.516 200.597 731.68 200.152 731.193C199.708 730.706 198.945 730.462 197.865 730.462H195.864V740.5ZM195.864 720.519V728.207H197.865C198.882 728.207 199.623 727.974 200.089 727.508C200.555 727.021 200.788 726.237 200.788 725.157V723.569C200.788 722.489 200.586 721.716 200.184 721.25C199.782 720.763 199.115 720.519 198.183 720.519H195.864ZM219.094 740.5H216.585L215.759 735.767H210.613L209.787 740.5H207.468L211.597 718.264H214.933L219.094 740.5ZM213.154 721.091L210.994 733.607H215.377L213.154 721.091ZM228.003 740.818C226.436 740.818 225.218 740.352 224.35 739.42C223.482 738.488 223.048 737.186 223.048 735.513V723.251C223.048 721.578 223.471 720.276 224.318 719.344C225.186 718.412 226.415 717.946 228.003 717.946C229.591 717.946 230.809 718.412 231.656 719.344C232.524 720.276 232.958 721.578 232.958 723.251V725.538H230.608V723.092C230.608 722.161 230.375 721.451 229.909 720.964C229.464 720.456 228.85 720.202 228.067 720.202C227.283 720.202 226.658 720.456 226.192 720.964C225.748 721.451 225.525 722.161 225.525 723.092V735.672C225.525 736.603 225.748 737.323 226.192 737.832C226.658 738.319 227.283 738.562 228.067 738.562C228.85 738.562 229.464 738.319 229.909 737.832C230.375 737.323 230.608 736.603 230.608 735.672V732.559H232.958V735.513C232.958 737.186 232.524 738.488 231.656 739.42C230.809 740.352 229.591 740.818 228.003 740.818ZM243.118 740.5H240.64V720.519H236.701V718.264H247.056V720.519H243.118V740.5ZM253.803 740.5H251.325V718.264H253.803V740.5ZM265.361 740.5H262.057L258.086 718.264H260.596L263.804 737.133L267.012 718.264H269.3L265.361 740.5ZM282.695 740.5H273.578V718.264H282.695V720.519H276.056V727.762H281.456V730.017H276.056V738.245H282.695V740.5Z" fill="#1A1A1A"/>
<path d="M335.339 740.5H326.223V718.264H335.339V720.519H328.7V727.762H334.1V730.017H328.7V738.245H335.339V740.5ZM341.228 740.5H338.845L343.229 729.128L339.036 718.264H341.673L344.786 726.587L347.962 718.264H350.345L346.151 729.128L350.535 740.5H347.899L344.563 731.637L341.228 740.5ZM357.282 740.5H354.804V718.264H359.664C363.01 718.264 364.683 720.064 364.683 723.664V725.57C364.683 729.149 363.01 730.939 359.664 730.939H357.282V740.5ZM357.282 720.519V728.683H359.664C360.554 728.683 361.2 728.461 361.602 728.016C362.004 727.55 362.206 726.777 362.206 725.697V723.505C362.206 722.425 362.004 721.663 361.602 721.218C361.2 720.752 360.554 720.519 359.664 720.519H357.282ZM378.305 740.5H369.188V718.264H378.305V720.519H371.666V727.762H377.066V730.017H371.666V738.245H378.305V740.5ZM385.212 740.5H382.734V718.264H387.594C389.352 718.264 390.623 718.677 391.406 719.503C392.211 720.308 392.613 721.578 392.613 723.315V724.681C392.613 727.137 391.756 728.63 390.04 729.16V729.191C391.777 729.636 392.645 731.182 392.645 733.829V737.8C392.645 739.028 392.751 739.928 392.963 740.5H390.453C390.263 739.865 390.167 738.965 390.167 737.8V733.702C390.167 732.516 389.945 731.68 389.5 731.193C389.056 730.706 388.293 730.462 387.213 730.462H385.212V740.5ZM385.212 720.519V728.207H387.213C388.23 728.207 388.971 727.974 389.437 727.508C389.903 727.021 390.136 726.237 390.136 725.157V723.569C390.136 722.489 389.935 721.716 389.532 721.25C389.13 720.763 388.463 720.519 387.531 720.519H385.212ZM400.185 740.5H397.708V718.264H400.185V740.5ZM414.539 740.5H405.422V718.264H414.539V720.519H407.9V727.762H413.3V730.017H407.9V738.245H414.539V740.5ZM421.224 740.5H418.968V718.264H422.145L427.164 734.147V718.264H429.419V740.5H426.846L421.224 722.425V740.5ZM439.387 740.818C437.82 740.818 436.603 740.352 435.734 739.42C434.866 738.488 434.432 737.186 434.432 735.513V723.251C434.432 721.578 434.855 720.276 435.703 719.344C436.571 718.412 437.799 717.946 439.387 717.946C440.976 717.946 442.193 718.412 443.04 719.344C443.909 720.276 444.343 721.578 444.343 723.251V725.538H441.992V723.092C441.992 722.161 441.759 721.451 441.293 720.964C440.849 720.456 440.234 720.202 439.451 720.202C438.667 720.202 438.043 720.456 437.577 720.964C437.132 721.451 436.91 722.161 436.91 723.092V735.672C436.91 736.603 437.132 737.323 437.577 737.832C438.043 738.319 438.667 738.562 439.451 738.562C440.234 738.562 440.849 738.319 441.293 737.832C441.759 737.323 441.992 736.603 441.992 735.672V732.559H444.343V735.513C444.343 737.186 443.909 738.488 443.04 739.42C442.193 740.352 440.976 740.818 439.387 740.818ZM458.156 740.5H449.039V718.264H458.156V720.519H451.517V727.762H456.917V730.017H451.517V738.245H458.156V740.5ZM462.012 735.417V734.179H464.363V735.608C464.363 737.578 465.22 738.562 466.936 738.562C468.672 738.562 469.54 737.567 469.54 735.576C469.54 734.581 469.286 733.681 468.778 732.876C468.312 732.093 467.423 731.161 466.11 730.081C464.585 728.831 463.515 727.698 462.901 726.682C462.308 725.687 462.012 724.543 462.012 723.251C462.012 721.578 462.446 720.276 463.314 719.344C464.183 718.412 465.411 717.946 466.999 717.946C468.587 717.946 469.794 718.412 470.62 719.344C471.467 720.276 471.891 721.599 471.891 723.315V724.204H469.54V723.156C469.54 721.186 468.693 720.202 466.999 720.202C465.305 720.202 464.458 721.165 464.458 723.092C464.458 724.003 464.712 724.84 465.22 725.602C465.728 726.364 466.65 727.285 467.984 728.366C469.53 729.636 470.578 730.79 471.129 731.828C471.722 732.823 472.018 734.009 472.018 735.386C472.018 737.122 471.573 738.467 470.684 739.42C469.816 740.352 468.577 740.818 466.967 740.818C465.358 740.818 464.13 740.352 463.283 739.42C462.435 738.488 462.012 737.154 462.012 735.417Z" fill="#1A1A1A"/>
</g>
<defs>
<clipPath id="clip0_20_494">
<rect width="691.7" height="755.6" fill="white"/>
</clipPath>
</defs>
</svg>
