<svg width="692" height="756" viewBox="0 0 692 756" fill="none" xmlns="http://www.w3.org/2000/svg">
<g clip-path="url(#clip0_3_85)">
<path d="M685.538 681.09C687.187 680.605 689.611 679.732 691.842 677.793C692.23 677.405 691.842 676.823 691.357 677.114C690.969 677.308 690.581 676.92 690.678 676.532C690.678 676.338 690.872 676.144 690.969 675.853C691.163 675.368 690.484 674.981 690.193 675.465C688.932 677.405 686.993 679.345 684.18 679.732C683.986 679.732 683.889 679.732 683.792 679.539C682.92 678.472 678.168 673.429 666.433 674.496C664.494 674.69 662.651 675.078 660.809 675.659C658.675 676.338 657.317 676.241 657.317 676.241C656.251 676.435 655.378 676.241 654.408 675.756L653.632 675.465L631.327 637.159L654.311 598.174L654.99 597.786C655.96 597.204 656.736 596.816 657.802 596.816C657.802 596.816 659.16 596.525 661.391 596.816C663.33 597.107 665.27 597.204 667.306 597.107C678.944 596.331 682.823 590.61 683.502 589.446C683.502 589.349 683.695 589.252 683.889 589.252C686.702 589.252 688.932 590.9 690.484 592.549C690.872 592.937 691.454 592.549 691.163 592.064C691.066 591.87 690.969 591.676 690.775 591.482C690.581 591.094 690.872 590.707 691.357 590.803C691.842 590.997 692.23 590.319 691.745 590.028C689.32 588.476 686.702 587.894 685.053 587.7C684.665 587.7 684.471 587.312 684.762 587.021C686.12 584.694 684.374 583.045 683.599 582.56C667.015 572.378 656.154 577.808 652.469 580.524C652.372 580.524 652.081 580.815 651.693 581.009C644.71 585.179 640.249 591.191 635.594 598.756L621.92 620.867L606.307 597.398C602.525 590.9 590.887 569.953 558.885 569.953C536.095 569.953 518.445 585.373 514.469 613.496C514.178 615.048 513.984 684.291 513.984 685.842V692.34C523.197 692.34 530.567 684.872 530.567 675.756V640.747H561.794V626.104H530.858V616.503C532.022 608.938 537.55 586.925 558.4 586.925C574.886 586.925 578.668 592.162 584.099 598.077C588.195 602.538 610.38 635.123 612.223 637.353L611.835 637.159L577.601 692.34L598.937 692.049L621.436 654.033L635.013 677.793C639.57 684.581 646.068 689.818 653.632 692.825C654.02 693.018 654.311 693.115 654.505 693.212C658.578 695.249 670.119 698.934 684.956 686.327C685.635 685.745 687.09 683.806 685.344 681.769C685.053 681.478 685.15 681.09 685.538 680.993V681.09ZM678.459 590.61C672.252 596.234 669.44 592.452 669.44 592.452C671.088 587.118 678.459 590.61 678.459 590.61ZM669.44 678.763C669.44 678.763 671.573 674.593 678.653 679.248C678.653 679.248 671.961 683.903 669.44 678.763Z" fill="#E6E6E6"/>
<path d="M0 584.888H45.2888C72.5396 584.888 84.5649 599.92 84.5649 620.382C84.5649 640.845 72.5396 656.07 45.2888 656.07H16.8742V676.048C16.8742 685.357 9.3099 692.922 0 692.922L0 584.888ZM45.5797 640.554C61.775 640.554 67.5937 631.923 67.5937 620.382C67.5937 608.842 61.775 600.405 45.5797 600.405H16.8742V640.554H45.5797Z" fill="#E6E6E6"/>
<path d="M90.8687 584.888H107.743V677.405H152.838C161.372 677.405 168.354 684.388 168.354 692.922H90.8687V584.888Z" fill="#E6E6E6"/>
<path d="M172.718 629.401C172.718 600.793 189.204 582.852 219.462 582.852C249.719 582.852 266.69 600.889 266.69 629.401V693.019H249.816V658.785H189.01V676.629C189.01 685.648 181.737 693.019 172.621 693.019V629.401H172.718ZM249.913 643.269V629.401C249.913 609.908 239.633 598.368 219.558 598.368C199.484 598.368 189.204 609.908 189.204 629.401V643.269H250.01H249.913Z" fill="#E6E6E6"/>
<path d="M275.612 627.558C275.612 600.113 292.001 582.754 321.192 582.754C350.382 582.754 366.965 600.113 366.965 627.558V692.921H350.091V627.558C350.091 609.423 340.199 598.368 321.192 598.368C302.184 598.368 292.486 609.423 292.486 627.558V676.629C292.486 685.648 285.213 693.018 276.097 693.018H275.612V627.655V627.558Z" fill="#E6E6E6"/>
<path d="M475.5 203.6C462.6 231.4 454.8 241.5 439.9 256.6C447.7 262.1 452.6 268.8 457.4 275.6C505.9 342.9 447.1 433.2 366.1 410.5C341.2 403.5 324.1 381.3 316.4 361.6C312.6 351.8 310.4 342.3 310 331.3V75.6C309.3 75.7 308.6 75.9 307.8 76C274.2 82.6 248 111.2 248.6 148.2V331.1C249.7 401.5 299.4 451.8 351.3 468.6C367.2 473.8 374.7 474.8 389.6 475.3C460.4 477.4 544 415 537 317.9C532.5 262.6 512.5 227.9 475.4 203.7L475.5 203.6Z" fill="#E6E6E6"/>
<path d="M174.4 143.7L173.6 436V440.4C173.6 440.4 173.6 440.4 173.6 440.5C173.6 441.1 174.1 447.1 174.8 451.5C175.6 456.4 175.9 461.4 175.6 466.4C174.7 483.6 179.3 529.2 245.2 561.2C248.3 562.7 257.1 564.8 261.6 555.8C262.3 554.4 263.6 554.2 264.5 555.4C268.4 560.3 275.4 567.5 285.5 572.1C287.3 572.9 288.9 570.4 287.2 569.2C285.9 568.2 286.6 566.2 288.2 566.2C289 566.2 289.8 566.2 290.8 566.2C292.8 566.1 293 563.2 291 562.9C282.4 561.4 272.9 557.6 267.2 548.8C266.9 548.3 266.9 547.7 267.2 547.2C269.6 542.6 279.8 518.9 258.7 480.3C255.1 473.8 250.8 467.6 245.9 462C240.4 455.7 238.5 450.8 238.5 450.8C236.4 447.4 235.9 444 235.9 439.9V436.5L236 146.8C236.3 135.8 236.9 125.5 241 115.8C251.3 91.9 270.2 72.3 295.2 64.9C380.5 39.7 446.5 142.5 379.4 209.2C379.4 209.2 378.6 210 377 211.3C367.8 218.9 356.3 223.2 344.4 223.7L337.9 224V285.3C357.7 285.3 377.3 281.7 395 272.8C427 256.5 468.4 222.8 468.4 157.3C472.3 -40.7 189.7 -58.4 174.6 144L174.4 143.7ZM248.1 496.2C248.1 496.2 265.7 497.3 260.4 528.6C260.4 528.6 234.4 512.4 248.1 496.2Z" fill="#E6E6E6"/>
<path d="M377.148 694.764V606.126C377.148 592.064 388.591 580.621 402.653 580.621H429.516C450.754 580.621 463.361 592.161 463.361 609.424C463.361 626.686 459.288 630.468 449.3 635.026V635.414C462.489 639.293 470.344 649.96 470.344 664.022C470.344 678.084 458.707 694.764 436.983 694.764H400.52V680.218H433.977C446.584 680.218 455.312 671.587 455.312 662.471C455.312 653.355 445.421 644.53 434.365 644.53H417.685L417.491 628.043H430.583C441.444 628.043 451.142 625.037 451.142 612.236C451.142 599.435 442.608 596.429 430.292 596.429H401.392C396.544 596.429 392.567 600.405 392.567 605.254V676.92C392.567 686.812 387.137 694.861 377.245 694.861L377.148 694.764Z" fill="#E6E6E6"/>
<circle cx="488.77" cy="634.929" r="8.72803" fill="#E6E6E6"/>
<path d="M5.97194 713.073C9.37086 713.073 10.7686 715.488 10.7686 718.696V720.538H9.37086V718.601C9.37086 716.218 8.44966 714.408 6.00371 714.408C3.55775 714.408 2.63655 716.218 2.63655 718.601V730.163C2.63655 732.546 3.55775 734.325 6.00371 734.325C8.44966 734.325 9.37086 732.546 9.37086 730.163V727.527H10.7686V730.068C10.7686 733.276 9.37086 735.691 5.97194 735.691C2.57302 735.691 1.17533 733.276 1.17533 730.068V718.696C1.17533 715.488 2.57302 713.073 5.97194 713.073ZM16.773 713.264V730.132C16.773 732.514 17.6624 734.356 20.1084 734.356C22.5543 734.356 23.4438 732.514 23.4438 730.132V713.264H24.8097V730.068C24.8097 733.245 23.4755 735.691 20.0766 735.691C16.6777 735.691 15.3118 733.245 15.3118 730.068V713.264H16.773ZM34.1798 713.073C37.547 713.073 38.9129 715.424 38.9129 718.632V719.109H37.5152V718.537C37.5152 716.186 36.6258 714.408 34.2116 714.408C31.7974 714.408 30.908 716.155 30.908 718.505C30.908 723.906 38.9447 724.001 38.9447 730.132C38.9447 733.34 37.547 735.691 34.1481 735.691C30.7491 735.691 29.3514 733.34 29.3514 730.132V728.988H30.7491V730.227C30.7491 732.609 31.6703 734.325 34.1163 734.325C36.5622 734.325 37.4835 732.609 37.4835 730.227C37.4835 724.89 29.4467 724.795 29.4467 718.601C29.4467 715.265 30.908 713.105 34.1798 713.073ZM48.8275 735.5H47.3663V714.598H42.8238V713.264H53.3382V714.598H48.8275V735.5ZM57.3769 730.068V718.696C57.3769 715.456 58.8699 713.073 62.2371 713.073C65.6678 713.073 67.1607 715.456 67.1607 718.696V730.068C67.1607 733.308 65.6678 735.691 62.2371 735.691C58.8699 735.691 57.3769 733.308 57.3769 730.068ZM58.8381 718.601V730.163C58.8381 732.578 59.7911 734.356 62.2371 734.356C64.7148 734.356 65.6995 732.578 65.6995 730.163V718.601C65.6995 716.186 64.7148 714.408 62.2371 714.408C59.7911 714.408 58.8381 716.186 58.8381 718.601ZM83.8968 715.742L79.259 735.468H77.7978L73.0964 715.805V735.5H71.7941V713.264H73.8906L78.5601 732.927L83.1979 713.264H85.2945V735.5H83.8968V715.742Z" fill="#E6E6E6"/>
<path d="M142.514 713.264H143.975V735.5H142.514V713.264ZM150.074 715.678V735.5H148.74V713.264H150.646L157.316 732.038V713.264H158.65V735.5H157.03L150.074 715.678ZM168.581 735.5H167.12V714.598H162.609V713.264H173.124V714.598H168.581V735.5ZM178.627 723.556H184.695V724.89H178.627V734.166H185.933V735.5H177.166V713.264H185.933V714.598H178.627V723.556ZM190.526 713.264H195.164C198.563 713.264 199.929 715.138 199.929 718.283V720.221C199.929 722.826 198.912 724.318 196.721 724.827C199.008 725.335 199.929 726.955 199.929 729.369V732.832C199.929 733.753 199.992 734.769 200.469 735.5H198.944C198.563 734.833 198.468 734.039 198.468 732.832V729.337C198.468 726.383 196.848 725.557 194.306 725.557H191.988V735.5H190.526V713.264ZM191.988 724.223H194.338C196.943 724.223 198.468 723.493 198.468 720.507V718.41C198.468 716.028 197.547 714.598 195.132 714.598H191.988V724.223ZM214.056 730.576H207.132L206.02 735.5H204.686L209.546 713.232H211.674L216.629 735.5H215.168L214.056 730.576ZM210.562 714.916L207.354 729.306H213.834L210.562 714.916ZM225.733 713.073C229.131 713.073 230.529 715.488 230.529 718.696V720.538H229.131V718.601C229.131 716.218 228.21 714.408 225.764 714.408C223.318 714.408 222.397 716.218 222.397 718.601V730.163C222.397 732.546 223.318 734.325 225.764 734.325C228.21 734.325 229.131 732.546 229.131 730.163V727.527H230.529V730.068C230.529 733.276 229.131 735.691 225.733 735.691C222.334 735.691 220.936 733.276 220.936 730.068V718.696C220.936 715.488 222.334 713.073 225.733 713.073ZM240.345 735.5H238.884V714.598H234.374V713.264H244.888V714.598H240.345V735.5ZM248.93 713.264H250.392V735.5H248.93V713.264ZM254.838 713.264H256.331L260.842 733.816L265.352 713.264H266.718L261.89 735.5H259.73L254.838 713.264ZM272.614 723.556H278.681V724.89H272.614V734.166H279.92V735.5H271.153V713.264H279.92V714.598H272.614V723.556Z" fill="#E6E6E6"/>
<path d="M327.43 723.556H333.497V724.89H327.43V734.166H334.736V735.5H325.968V713.264H334.736V714.598H327.43V723.556ZM349.494 735.5L344.983 725.144L340.472 735.5H339.043L344.062 723.969L339.392 713.264H340.917L345.11 722.826L349.335 713.264H350.732L346.063 723.969L351.05 735.5H349.494ZM355.543 713.264H360.149C363.579 713.264 364.914 715.424 364.914 718.664V721.078C364.914 724.604 363.293 726.351 359.768 726.351H357.004V735.5H355.543V713.264ZM357.004 725.017H359.768C362.341 725.017 363.452 723.874 363.452 721.174V718.569C363.452 716.155 362.626 714.598 360.149 714.598H357.004V725.017ZM370.798 723.556H376.866V724.89H370.798V734.166H378.104V735.5H369.337V713.264H378.104V714.598H370.798V723.556ZM382.697 713.264H387.335C390.734 713.264 392.1 715.138 392.1 718.283V720.221C392.1 722.826 391.083 724.318 388.892 724.827C391.179 725.335 392.1 726.955 392.1 729.369V732.832C392.1 733.753 392.163 734.769 392.64 735.5H391.115C390.734 734.833 390.639 734.039 390.639 732.832V729.337C390.639 726.383 389.019 725.557 386.477 725.557H384.159V735.5H382.697V713.264ZM384.159 724.223H386.509C389.114 724.223 390.639 723.493 390.639 720.507V718.41C390.639 716.028 389.718 714.598 387.303 714.598H384.159V724.223ZM397.174 713.264H398.635V735.5H397.174V713.264ZM404.861 723.556H410.928V724.89H404.861V734.166H412.167V735.5H403.4V713.264H412.167V714.598H404.861V723.556ZM418.094 715.678V735.5H416.76V713.264H418.666L425.336 732.038V713.264H426.671V735.5H425.051L418.094 715.678ZM436.093 713.073C439.492 713.073 440.89 715.488 440.89 718.696V720.538H439.492V718.601C439.492 716.218 438.571 714.408 436.125 714.408C433.679 714.408 432.758 716.218 432.758 718.601V730.163C432.758 732.546 433.679 734.325 436.125 734.325C438.571 734.325 439.492 732.546 439.492 730.163V727.527H440.89V730.068C440.89 733.276 439.492 735.691 436.093 735.691C432.694 735.691 431.297 733.276 431.297 730.068V718.696C431.297 715.488 432.694 713.073 436.093 713.073ZM446.958 723.556H453.025V724.89H446.958V734.166H454.264V735.5H445.497V713.264H454.264V714.598H446.958V723.556ZM463.494 713.073C466.862 713.073 468.228 715.424 468.228 718.632V719.109H466.83V718.537C466.83 716.186 465.94 714.408 463.526 714.408C461.112 714.408 460.223 716.155 460.223 718.505C460.223 723.906 468.259 724.001 468.259 730.132C468.259 733.34 466.862 735.691 463.463 735.691C460.064 735.691 458.666 733.34 458.666 730.132V728.988H460.064V730.227C460.064 732.609 460.985 734.325 463.431 734.325C465.877 734.325 466.798 732.609 466.798 730.227C466.798 724.89 458.761 724.795 458.761 718.601C458.761 715.265 460.223 713.105 463.494 713.073Z" fill="#E6E6E6"/>
</g>
<defs>
<clipPath id="clip0_3_85">
<rect width="691.7" height="755.6" fill="white"/>
</clipPath>
</defs>
</svg>
