<svg width="692" height="147" viewBox="0 0 692 147" fill="none" xmlns="http://www.w3.org/2000/svg">
<g clip-path="url(#clip0_32_570)">
<path d="M686.538 123.137C688.187 122.652 690.611 121.779 692.842 119.84C693.23 119.452 692.842 118.87 692.357 119.161C691.969 119.355 691.581 118.967 691.678 118.579C691.678 118.385 691.872 118.191 691.969 117.9C692.163 117.415 691.484 117.027 691.193 117.512C689.932 119.452 687.993 121.391 685.18 121.779C684.986 121.779 684.889 121.779 684.792 121.585C683.92 120.518 679.168 115.476 667.433 116.542C665.494 116.736 663.651 117.124 661.809 117.706C659.675 118.385 658.317 118.288 658.317 118.288C657.251 118.482 656.378 118.288 655.408 117.803L654.632 117.512L632.327 79.2057L655.311 40.2204L655.99 39.8326C656.96 39.2507 657.736 38.8628 658.802 38.8628C658.802 38.8628 660.16 38.5718 662.391 38.8628C664.33 39.1537 666.27 39.2507 668.306 39.1537C679.944 38.3779 683.823 32.6561 684.502 31.4924C684.502 31.3954 684.695 31.2985 684.889 31.2985C687.702 31.2985 689.932 32.9471 691.484 34.5957C691.872 34.9836 692.454 34.5957 692.163 34.1108C692.066 33.9169 691.969 33.7229 691.775 33.529C691.581 33.1411 691.872 32.7531 692.357 32.8501C692.842 33.0441 693.23 32.3652 692.745 32.0743C690.32 30.5227 687.702 29.9408 686.053 29.7468C685.665 29.7468 685.471 29.3589 685.762 29.068C687.12 26.7405 685.374 25.0919 684.599 24.607C668.015 14.4243 657.154 19.8551 653.469 22.5705C653.372 22.5705 653.081 22.8614 652.693 23.0554C645.71 27.2254 641.249 33.238 636.594 40.8023L622.92 62.9133L607.307 39.4445C603.525 32.947 591.887 12 559.885 12C537.095 12 519.445 27.4192 515.469 55.543C515.178 57.0947 514.984 126.337 514.984 127.889V134.386C524.197 134.386 531.567 126.919 531.567 117.803V82.7939H562.794V68.1502H531.858V58.5494C533.022 50.9851 538.55 28.9712 559.4 28.9712C575.886 28.9712 579.668 34.2083 585.099 40.1236C589.195 44.5847 611.38 77.1694 613.223 79.3999L612.835 79.2057L578.601 134.386L599.937 134.095L622.436 96.0799L636.013 119.84C640.57 126.628 647.068 131.865 654.632 134.871C655.02 135.065 655.311 135.162 655.505 135.259C659.578 137.296 671.119 140.981 685.956 128.374C686.635 127.792 688.09 125.852 686.344 123.816C686.053 123.525 686.15 123.137 686.538 123.04V123.137ZM679.459 32.6562C673.252 38.2809 670.44 34.4988 670.44 34.4988C672.088 29.165 679.459 32.6562 679.459 32.6562ZM670.44 120.809C670.44 120.809 672.573 116.639 679.653 121.294C679.653 121.294 672.961 125.949 670.44 120.809Z" fill="#1A1A1A"/>
<path d="M1 26.9346H46.2888C73.5396 26.9346 85.5649 41.9661 85.5649 62.4285C85.5649 82.8909 73.5396 98.1164 46.2888 98.1164H17.8742V118.094C17.8742 127.404 10.3099 134.968 1 134.968L1 26.9346ZM46.5797 82.6C62.775 82.6 68.5937 73.9689 68.5937 62.4285C68.5937 50.8881 62.775 42.4511 46.5797 42.4511H17.8742V82.6H46.5797Z" fill="#1A1A1A" stroke="#1A1A1A" stroke-width="2"/>
<path d="M91.8682 26.9346H108.742V119.452H153.837C162.371 119.452 169.354 126.434 169.354 134.968H91.8682V26.9346Z" fill="#1A1A1A" stroke="#1A1A1A" stroke-width="2"/>
<path d="M173.718 71.4479C173.718 42.8394 190.204 24.8984 220.462 24.8984C250.719 24.8984 267.69 42.9364 267.69 71.4479V135.066H250.816V100.832H190.01V118.676C190.01 127.695 182.737 135.066 173.621 135.066V71.4479H173.718ZM250.913 85.3158V71.4479C250.913 51.9553 240.633 40.4149 220.558 40.4149C200.484 40.4149 190.204 51.9553 190.204 71.4479V85.3158H251.01H250.913Z" fill="#1A1A1A" stroke="#1A1A1A" stroke-width="2"/>
<path d="M276.612 69.6047C276.612 42.1599 293.001 24.8008 322.192 24.8008C351.382 24.8008 367.965 42.1599 367.965 69.6047V134.968H351.091V69.6047C351.091 51.4698 341.199 40.4142 322.192 40.4142C303.184 40.4142 293.486 51.4698 293.486 69.6047V118.676C293.486 127.695 286.213 135.065 277.097 135.065H276.612V69.7016V69.6047Z" fill="#1A1A1A" stroke="#1A1A1A" stroke-width="2"/>
<path d="M378.148 136.811V48.1732C378.148 34.1114 389.591 22.668 403.653 22.668H430.516C451.754 22.668 464.361 34.2084 464.361 51.4705C464.361 68.7326 460.288 72.5147 450.3 77.0727V77.4606C463.489 81.3397 471.344 92.0073 471.344 106.069C471.344 120.131 459.707 136.811 437.983 136.811H401.52V122.264H434.977C447.584 122.264 456.312 113.633 456.312 104.518C456.312 95.4016 446.421 86.5766 435.365 86.5766H418.685L418.491 70.0903H431.583C442.444 70.0903 452.142 67.084 452.142 54.2829C452.142 41.4818 443.608 38.4754 431.292 38.4754H402.392C397.544 38.4754 393.567 42.4515 393.567 47.3004V118.967C393.567 128.859 388.137 136.908 378.245 136.908L378.148 136.811Z" fill="#1A1A1A" stroke="#1A1A1A" stroke-width="2"/>
<circle cx="489.77" cy="76.9751" r="8.72803" fill="#1A1A1A"/>
</g>
<defs>
<clipPath id="clip0_32_570">
<rect width="692" height="147" fill="white"/>
</clipPath>
</defs>
</svg>
