<svg width="692" height="609" viewBox="0 0 692 609" fill="none" xmlns="http://www.w3.org/2000/svg">
<g clip-path="url(#clip0_118_561)">
<path d="M475.5 203.8C462.6 231.6 454.8 241.7 439.9 256.8C447.7 262.3 452.6 269 457.4 275.8C505.9 343.1 447.1 433.4 366.1 410.7C341.2 403.7 324.1 381.5 316.4 361.8C312.6 352 310.4 342.5 310 331.5V75.8003C309.3 75.9003 308.6 76.1003 307.8 76.2003C274.2 82.8003 248 111.4 248.6 148.4V331.3C249.7 401.7 299.4 452 351.3 468.8C367.2 474 374.7 475 389.6 475.5C460.4 477.6 544 415.2 537 318.1C532.5 262.8 512.5 228.1 475.4 203.9L475.5 203.8Z" fill="#1A1A1A"/>
<path d="M174.4 143.9L173.6 436.2V440.6C173.6 440.6 173.6 440.6 173.6 440.7C173.6 441.3 174.1 447.3 174.8 451.7C175.6 456.6 175.9 461.6 175.6 466.6C174.7 483.8 179.3 529.4 245.2 561.4C248.3 562.9 257.1 565 261.6 556C262.3 554.6 263.6 554.4 264.5 555.6C268.4 560.5 275.4 567.7 285.5 572.3C287.3 573.1 288.9 570.6 287.2 569.4C285.9 568.4 286.6 566.4 288.2 566.4C289 566.4 289.8 566.4 290.8 566.4C292.8 566.3 293 563.4 291 563.1C282.4 561.6 272.9 557.8 267.2 549C266.9 548.5 266.9 547.9 267.2 547.4C269.6 542.8 279.8 519.1 258.7 480.5C255.1 474 250.8 467.8 245.9 462.2C240.4 455.9 238.5 451 238.5 451C236.4 447.6 235.9 444.2 235.9 440.1V436.7L236 147C236.3 136 236.9 125.7 241 116C251.3 92.1003 270.2 72.5003 295.2 65.1003C380.5 39.9003 446.5 142.7 379.4 209.4C379.4 209.4 378.6 210.2 377 211.5C367.8 219.1 356.3 223.4 344.4 223.9L337.9 224.2V285.5C357.7 285.5 377.3 281.9 395 273C427 256.7 468.4 223 468.4 157.5C472.3 -40.4997 189.7 -58.1997 174.6 144.2L174.4 143.9ZM248.1 496.4C248.1 496.4 265.7 497.5 260.4 528.8C260.4 528.8 234.4 512.6 248.1 496.4Z" fill="#1A1A1A"/>
</g>
<defs>
<clipPath id="clip0_118_561">
<rect width="692" height="608" fill="white" transform="translate(0 0.600098)"/>
</clipPath>
</defs>
</svg>
