<svg width="692" height="208" viewBox="0 0 692 208" fill="none" xmlns="http://www.w3.org/2000/svg">
<path d="M109 36.8882H154.289C181.54 36.8882 193.565 51.9198 193.565 72.3821C193.565 92.8445 181.54 108.07 154.289 108.07H125.874V128.048C125.874 137.357 118.31 144.922 109 144.922V36.8882ZM154.58 92.5536C170.775 92.5536 176.594 83.9225 176.594 72.3821C176.594 60.8417 170.775 52.4047 154.58 52.4047H125.874V92.5536H154.58Z" fill="#E6E6E6"/>
<path d="M199.869 36.8882H216.743V129.405H261.838C270.372 129.405 277.355 136.388 277.355 144.922H199.869V36.8882Z" fill="#E6E6E6"/>
<path d="M283.718 81.401C283.718 52.7925 300.204 34.8516 330.462 34.8516C360.719 34.8516 377.69 52.8895 377.69 81.401V145.019H360.816V110.785H300.01V128.629C300.01 137.648 292.737 145.019 283.621 145.019V81.401H283.718ZM360.913 95.2689V81.401C360.913 61.9084 350.633 50.3681 330.558 50.3681C310.484 50.3681 300.204 61.9084 300.204 81.401V95.2689H361.01H360.913Z" fill="#E6E6E6"/>
<path d="M386.611 79.5583C386.611 52.1135 403.001 34.7544 432.191 34.7544C461.381 34.7544 477.965 52.1135 477.965 79.5583V144.921H461.09V79.5583C461.09 61.4234 451.199 50.3678 432.191 50.3678C413.183 50.3678 403.486 61.4234 403.486 79.5583V128.629C403.486 137.648 396.212 145.018 387.096 145.018H386.611V79.6552V79.5583Z" fill="#E6E6E6"/>
<path d="M488.148 146.764V58.1263C488.148 44.0645 499.592 32.6211 513.654 32.6211H540.517C561.755 32.6211 574.362 44.1615 574.362 61.4236C574.362 78.6857 570.289 82.4679 560.3 87.0258V87.4137C573.489 91.2928 581.344 101.96 581.344 116.022C581.344 130.084 569.707 146.764 547.984 146.764H511.52V132.218H544.978C557.585 132.218 566.313 123.587 566.313 114.471C566.313 105.355 556.421 96.5297 545.366 96.5297H528.685L528.491 80.0434H541.583C552.445 80.0434 562.143 77.0371 562.143 64.236C562.143 51.4349 553.609 48.4285 541.292 48.4285H512.393C507.544 48.4285 503.568 52.4046 503.568 57.2536V128.92C503.568 138.812 498.137 146.861 488.245 146.861L488.148 146.764Z" fill="#E6E6E6"/>
<path d="M268.732 175.556H274.799V176.89H268.732V186.166H276.038V187.5H267.271V165.264H276.038V166.598H268.732V175.556ZM290.796 187.5L286.285 177.144L281.774 187.5H280.345L285.364 175.969L280.694 165.264H282.219L286.412 174.826L290.637 165.264H292.035L287.365 175.969L292.352 187.5H290.796ZM296.845 165.264H301.451C304.882 165.264 306.216 167.424 306.216 170.664V173.078C306.216 176.604 304.596 178.351 301.07 178.351H298.306V187.5H296.845V165.264ZM298.306 177.017H301.07C303.643 177.017 304.755 175.874 304.755 173.174V170.569C304.755 168.155 303.929 166.598 301.451 166.598H298.306V177.017ZM312.101 175.556H318.168V176.89H312.101V186.166H319.407V187.5H310.639V165.264H319.407V166.598H312.101V175.556ZM324 165.264H328.637C332.036 165.264 333.402 167.138 333.402 170.283V172.221C333.402 174.826 332.386 176.318 330.194 176.827C332.481 177.335 333.402 178.955 333.402 181.369V184.832C333.402 185.753 333.466 186.769 333.942 187.5H332.417C332.036 186.833 331.941 186.039 331.941 184.832V181.337C331.941 178.383 330.321 177.557 327.78 177.557H325.461V187.5H324V165.264ZM325.461 176.223H327.811C330.416 176.223 331.941 175.493 331.941 172.507V170.41C331.941 168.028 331.02 166.598 328.606 166.598H325.461V176.223ZM338.477 165.264H339.938V187.5H338.477V165.264ZM346.163 175.556H352.23V176.89H346.163V186.166H353.469V187.5H344.702V165.264H353.469V166.598H346.163V175.556ZM359.396 167.678V187.5H358.062V165.264H359.968L366.639 184.038V165.264H367.973V187.5H366.353L359.396 167.678ZM377.395 165.073C380.794 165.073 382.192 167.488 382.192 170.696V172.538H380.794V170.601C380.794 168.218 379.873 166.408 377.427 166.408C374.981 166.408 374.06 168.218 374.06 170.601V182.163C374.06 184.546 374.981 186.325 377.427 186.325C379.873 186.325 380.794 184.546 380.794 182.163V179.527H382.192V182.068C382.192 185.276 380.794 187.691 377.395 187.691C373.996 187.691 372.599 185.276 372.599 182.068V170.696C372.599 167.488 373.996 165.073 377.395 165.073ZM388.26 175.556H394.327V176.89H388.26V186.166H395.566V187.5H386.799V165.264H395.566V166.598H388.26V175.556ZM404.797 165.073C408.164 165.073 409.53 167.424 409.53 170.632V171.109H408.132V170.537C408.132 168.186 407.243 166.408 404.828 166.408C402.414 166.408 401.525 168.155 401.525 170.505C401.525 175.906 409.562 176.001 409.562 182.132C409.562 185.34 408.164 187.691 404.765 187.691C401.366 187.691 399.968 185.34 399.968 182.132V180.988H401.366V182.227C401.366 184.609 402.287 186.325 404.733 186.325C407.179 186.325 408.1 184.609 408.1 182.227C408.1 176.89 400.064 176.795 400.064 170.601C400.064 167.265 401.525 165.105 404.797 165.073Z" fill="#E6E6E6"/>
<path d="M116.972 165.073C120.371 165.073 121.769 167.488 121.769 170.696V172.538H120.371V170.601C120.371 168.218 119.45 166.408 117.004 166.408C114.558 166.408 113.637 168.218 113.637 170.601V182.163C113.637 184.546 114.558 186.325 117.004 186.325C119.45 186.325 120.371 184.546 120.371 182.163V179.527H121.769V182.068C121.769 185.276 120.371 187.691 116.972 187.691C113.573 187.691 112.175 185.276 112.175 182.068V170.696C112.175 167.488 113.573 165.073 116.972 165.073ZM127.773 165.264V182.132C127.773 184.514 128.662 186.356 131.108 186.356C133.554 186.356 134.444 184.514 134.444 182.132V165.264H135.81V182.068C135.81 185.245 134.476 187.691 131.077 187.691C127.678 187.691 126.312 185.245 126.312 182.068V165.264H127.773ZM140.542 165.264H145.18C148.579 165.264 149.945 167.138 149.945 170.283V172.221C149.945 174.826 148.928 176.318 146.736 176.827C149.023 177.335 149.945 178.955 149.945 181.369V184.832C149.945 185.753 150.008 186.769 150.485 187.5H148.96C148.579 186.833 148.483 186.039 148.483 184.832V181.337C148.483 178.383 146.863 177.557 144.322 177.557H142.003V187.5H140.542V165.264ZM142.003 176.223H144.354C146.959 176.223 148.483 175.493 148.483 172.507V170.41C148.483 168.028 147.562 166.598 145.148 166.598H142.003V176.223ZM164.072 182.576H157.147L156.035 187.5H154.701L159.561 165.232H161.69L166.645 187.5H165.184L164.072 182.576ZM160.578 166.916L157.37 181.306H163.85L160.578 166.916ZM175.078 187.5H173.617V166.598H169.106V165.264H179.62V166.598H175.078V187.5ZM183.663 165.264H185.124V187.5H183.663V165.264ZM191.222 167.678V187.5H189.888V165.264H191.794L198.465 184.038V165.264H199.799V187.5H198.179L191.222 167.678ZM209.221 165.073C212.62 165.073 214.018 167.488 214.018 170.696V172.348H212.62V170.601C212.62 168.218 211.699 166.408 209.253 166.408C206.807 166.408 205.886 168.218 205.886 170.601V182.163C205.886 184.546 206.807 186.325 209.253 186.325C211.699 186.325 212.62 184.546 212.62 182.163V177.367H209.666V176.033H214.018V182.068C214.018 185.276 212.62 187.691 209.221 187.691C205.822 187.691 204.425 185.276 204.425 182.068V170.696C204.425 167.488 205.822 165.073 209.221 165.073Z" fill="#E6E6E6"/>
</svg>
