<svg width="692" height="210" viewBox="0 0 692 210" fill="none" xmlns="http://www.w3.org/2000/svg">
<path d="M488.148 148.764V60.1263C488.148 46.0645 499.592 34.6211 513.654 34.6211H540.517C561.755 34.6211 574.362 46.1615 574.362 63.4236C574.362 80.6857 570.289 84.4679 560.3 89.0258V89.4137C573.489 93.2928 581.344 103.96 581.344 118.022C581.344 132.084 569.707 148.764 547.984 148.764H511.52V134.218H544.978C557.585 134.218 566.313 125.587 566.313 116.471C566.313 107.355 556.421 98.5297 545.366 98.5297H528.685L528.491 82.0434H541.583C552.445 82.0434 562.143 79.0371 562.143 66.236C562.143 53.4349 553.609 50.4285 541.292 50.4285H512.393C507.544 50.4285 503.568 54.4046 503.568 59.2536V130.92C503.568 140.812 498.137 148.861 488.245 148.861L488.148 148.764Z" fill="#1A1A1A"/>
<path d="M386.611 81.5583C386.611 54.1135 403.001 36.7544 432.191 36.7544C461.381 36.7544 477.965 54.1135 477.965 81.5583V146.921H461.09V81.5583C461.09 63.4234 451.199 52.3678 432.191 52.3678C413.183 52.3678 403.486 63.4234 403.486 81.5583V130.629C403.486 139.648 396.212 147.018 387.096 147.018H386.611V81.6552V81.5583Z" fill="#1A1A1A"/>
<path d="M283.718 83.401C283.718 54.7925 300.204 36.8516 330.462 36.8516C360.719 36.8516 377.69 54.8895 377.69 83.401V147.019H360.816V112.785H300.01V130.629C300.01 139.648 292.737 147.019 283.621 147.019V83.401H283.718ZM360.913 97.2689V83.401C360.913 63.9084 350.633 52.3681 330.558 52.3681C310.484 52.3681 300.204 63.9084 300.204 83.401V97.2689H361.01H360.913Z" fill="#1A1A1A"/>
<path d="M109 38.8882H154.289C181.54 38.8882 193.565 53.9198 193.565 74.3821C193.565 94.8445 181.54 110.07 154.289 110.07H125.874V130.048C125.874 139.357 118.31 146.922 109 146.922V38.8882ZM154.58 94.5536C170.775 94.5536 176.594 85.9225 176.594 74.3821C176.594 62.8417 170.775 54.4047 154.58 54.4047H125.874V94.5536H154.58Z" fill="#1A1A1A"/>
<path d="M199.869 38.8882H216.743V131.405H261.838C270.372 131.405 277.355 138.388 277.355 146.922H199.869V38.8882Z" fill="#1A1A1A"/>
<path d="M116.972 167.073C120.371 167.073 121.769 169.488 121.769 172.696V174.538H120.371V172.601C120.371 170.218 119.45 168.408 117.004 168.408C114.558 168.408 113.637 170.218 113.637 172.601V184.163C113.637 186.546 114.558 188.325 117.004 188.325C119.45 188.325 120.371 186.546 120.371 184.163V181.527H121.769V184.068C121.769 187.276 120.371 189.691 116.972 189.691C113.573 189.691 112.175 187.276 112.175 184.068V172.696C112.175 169.488 113.573 167.073 116.972 167.073ZM127.773 167.264V184.132C127.773 186.514 128.662 188.356 131.108 188.356C133.554 188.356 134.444 186.514 134.444 184.132V167.264H135.81V184.068C135.81 187.245 134.476 189.691 131.077 189.691C127.678 189.691 126.312 187.245 126.312 184.068V167.264H127.773ZM140.542 167.264H145.18C148.579 167.264 149.945 169.138 149.945 172.283V174.221C149.945 176.826 148.928 178.318 146.736 178.827C149.023 179.335 149.945 180.955 149.945 183.369V186.832C149.945 187.753 150.008 188.769 150.485 189.5H148.96C148.579 188.833 148.483 188.039 148.483 186.832V183.337C148.483 180.383 146.863 179.557 144.322 179.557H142.003V189.5H140.542V167.264ZM142.003 178.223H144.354C146.959 178.223 148.483 177.493 148.483 174.507V172.41C148.483 170.028 147.562 168.598 145.148 168.598H142.003V178.223ZM164.072 184.576H157.147L156.035 189.5H154.701L159.561 167.232H161.69L166.645 189.5H165.184L164.072 184.576ZM160.578 168.916L157.37 183.306H163.85L160.578 168.916ZM175.078 189.5H173.617V168.598H169.106V167.264H179.62V168.598H175.078V189.5ZM183.663 167.264H185.124V189.5H183.663V167.264ZM191.222 169.678V189.5H189.888V167.264H191.794L198.465 186.038V167.264H199.799V189.5H198.179L191.222 169.678ZM209.221 167.073C212.62 167.073 214.018 169.488 214.018 172.696V174.348H212.62V172.601C212.62 170.218 211.699 168.408 209.253 168.408C206.807 168.408 205.886 170.218 205.886 172.601V184.163C205.886 186.546 206.807 188.325 209.253 188.325C211.699 188.325 212.62 186.546 212.62 184.163V179.367H209.666V178.033H214.018V184.068C214.018 187.276 212.62 189.691 209.221 189.691C205.822 189.691 204.425 187.276 204.425 184.068V172.696C204.425 169.488 205.822 167.073 209.221 167.073Z" fill="#1A1A1A"/>
<path d="M247.732 177.556H253.799V178.89H247.732V188.166H255.038V189.5H246.271V167.264H255.038V168.598H247.732V177.556ZM269.796 189.5L265.285 179.144L260.774 189.5H259.345L264.364 177.969L259.694 167.264H261.219L265.412 176.826L269.637 167.264H271.035L266.365 177.969L271.352 189.5H269.796ZM275.845 167.264H280.451C283.882 167.264 285.216 169.424 285.216 172.664V175.078C285.216 178.604 283.596 180.351 280.07 180.351H277.306V189.5H275.845V167.264ZM277.306 179.017H280.07C282.643 179.017 283.755 177.874 283.755 175.174V172.569C283.755 170.155 282.929 168.598 280.451 168.598H277.306V179.017ZM291.101 177.556H297.168V178.89H291.101V188.166H298.407V189.5H289.639V167.264H298.407V168.598H291.101V177.556ZM303 167.264H307.637C311.036 167.264 312.402 169.138 312.402 172.283V174.221C312.402 176.826 311.386 178.318 309.194 178.827C311.481 179.335 312.402 180.955 312.402 183.369V186.832C312.402 187.753 312.466 188.769 312.942 189.5H311.417C311.036 188.833 310.941 188.039 310.941 186.832V183.337C310.941 180.383 309.321 179.557 306.78 179.557H304.461V189.5H303V167.264ZM304.461 178.223H306.811C309.416 178.223 310.941 177.493 310.941 174.507V172.41C310.941 170.028 310.02 168.598 307.606 168.598H304.461V178.223ZM317.477 167.264H318.938V189.5H317.477V167.264ZM325.163 177.556H331.23V178.89H325.163V188.166H332.469V189.5H323.702V167.264H332.469V168.598H325.163V177.556ZM338.396 169.678V189.5H337.062V167.264H338.968L345.639 186.038V167.264H346.973V189.5H345.353L338.396 169.678ZM356.395 167.073C359.794 167.073 361.192 169.488 361.192 172.696V174.538H359.794V172.601C359.794 170.218 358.873 168.408 356.427 168.408C353.981 168.408 353.06 170.218 353.06 172.601V184.163C353.06 186.546 353.981 188.325 356.427 188.325C358.873 188.325 359.794 186.546 359.794 184.163V181.527H361.192V184.068C361.192 187.276 359.794 189.691 356.395 189.691C352.996 189.691 351.599 187.276 351.599 184.068V172.696C351.599 169.488 352.996 167.073 356.395 167.073ZM367.26 177.556H373.327V178.89H367.26V188.166H374.566V189.5H365.799V167.264H374.566V168.598H367.26V177.556ZM383.797 167.073C387.164 167.073 388.53 169.424 388.53 172.632V173.109H387.132V172.537C387.132 170.186 386.243 168.408 383.828 168.408C381.414 168.408 380.525 170.155 380.525 172.505C380.525 177.906 388.562 178.001 388.562 184.132C388.562 187.34 387.164 189.691 383.765 189.691C380.366 189.691 378.968 187.34 378.968 184.132V182.988H380.366V184.227C380.366 186.609 381.287 188.325 383.733 188.325C386.179 188.325 387.1 186.609 387.1 184.227C387.1 178.89 379.064 178.795 379.064 172.601C379.064 169.265 380.525 167.105 383.797 167.073Z" fill="#1A1A1A"/>
</svg>
