<svg width="692" height="608" viewBox="0 0 692 608" fill="none" xmlns="http://www.w3.org/2000/svg">
<g clip-path="url(#clip0_118_523)">
<path d="M475.5 203.2C462.6 231 454.8 241.1 439.9 256.2C447.7 261.7 452.6 268.4 457.4 275.2C505.9 342.5 447.1 432.8 366.1 410.1C341.2 403.1 324.1 380.9 316.4 361.2C312.6 351.4 310.4 341.9 310 330.9V75.2002C309.3 75.3002 308.6 75.5002 307.8 75.6002C274.2 82.2002 248 110.8 248.6 147.8V330.7C249.7 401.1 299.4 451.4 351.3 468.2C367.2 473.4 374.7 474.4 389.6 474.9C460.4 477 544 414.6 537 317.5C532.5 262.2 512.5 227.5 475.4 203.3L475.5 203.2Z" fill="#E6E6E6"/>
<path d="M174.4 143.3L173.6 435.6V440C173.6 440 173.6 440 173.6 440.1C173.6 440.7 174.1 446.7 174.8 451.1C175.6 456 175.9 461 175.6 466C174.7 483.2 179.3 528.8 245.2 560.8C248.3 562.3 257.1 564.4 261.6 555.4C262.3 554 263.6 553.8 264.5 555C268.4 559.9 275.4 567.1 285.5 571.7C287.3 572.5 288.9 570 287.2 568.8C285.9 567.8 286.6 565.8 288.2 565.8C289 565.8 289.8 565.8 290.8 565.8C292.8 565.7 293 562.8 291 562.5C282.4 561 272.9 557.2 267.2 548.4C266.9 547.9 266.9 547.3 267.2 546.8C269.6 542.2 279.8 518.5 258.7 479.9C255.1 473.4 250.8 467.2 245.9 461.6C240.4 455.3 238.5 450.4 238.5 450.4C236.4 447 235.9 443.6 235.9 439.5V436.1L236 146.4C236.3 135.4 236.9 125.1 241 115.4C251.3 91.5002 270.2 71.9002 295.2 64.5002C380.5 39.3002 446.5 142.1 379.4 208.8C379.4 208.8 378.6 209.6 377 210.9C367.8 218.5 356.3 222.8 344.4 223.3L337.9 223.6V284.9C357.7 284.9 377.3 281.3 395 272.4C427 256.1 468.4 222.4 468.4 156.9C472.3 -41.0998 189.7 -58.7998 174.6 143.6L174.4 143.3ZM248.1 495.8C248.1 495.8 265.7 496.9 260.4 528.2C260.4 528.2 234.4 512 248.1 495.8Z" fill="#E6E6E6"/>
</g>
<defs>
<clipPath id="clip0_118_523">
<rect width="692" height="608" fill="white"/>
</clipPath>
</defs>
</svg>
