<svg width="692" height="756" viewBox="0 0 692 756" fill="none" xmlns="http://www.w3.org/2000/svg">
<path d="M109 584.888H154.289C181.54 584.888 193.565 599.92 193.565 620.382C193.565 640.845 181.54 656.07 154.289 656.07H125.874V676.048C125.874 685.357 118.31 692.922 109 692.922V584.888ZM154.58 640.554C170.775 640.554 176.594 631.923 176.594 620.382C176.594 608.842 170.775 600.405 154.58 600.405H125.874V640.554H154.58Z" fill="#E6E6E6"/>
<path d="M199.869 584.888H216.743V677.405H261.838C270.372 677.405 277.355 684.388 277.355 692.922H199.869V584.888Z" fill="#E6E6E6"/>
<path d="M283.718 629.401C283.718 600.793 300.204 582.852 330.462 582.852C360.719 582.852 377.69 600.889 377.69 629.401V693.019H360.816V658.785H300.01V676.629C300.01 685.648 292.737 693.019 283.621 693.019V629.401H283.718ZM360.913 643.269V629.401C360.913 609.908 350.633 598.368 330.558 598.368C310.484 598.368 300.204 609.908 300.204 629.401V643.269H361.01H360.913Z" fill="#E6E6E6"/>
<path d="M386.611 627.558C386.611 600.113 403.001 582.754 432.191 582.754C461.381 582.754 477.965 600.113 477.965 627.558V692.921H461.09V627.558C461.09 609.423 451.199 598.368 432.191 598.368C413.183 598.368 403.486 609.423 403.486 627.558V676.629C403.486 685.648 396.212 693.018 387.096 693.018H386.611V627.655V627.558Z" fill="#E6E6E6"/>
<path d="M475.5 203.6C462.6 231.4 454.8 241.5 439.9 256.6C447.7 262.1 452.6 268.8 457.4 275.6C505.9 342.9 447.1 433.2 366.1 410.5C341.2 403.5 324.1 381.3 316.4 361.6C312.6 351.8 310.4 342.3 310 331.3V75.6001C309.3 75.7001 308.6 75.9001 307.8 76.0001C274.2 82.6001 248 111.2 248.6 148.2V331.1C249.7 401.5 299.4 451.8 351.3 468.6C367.2 473.8 374.7 474.8 389.6 475.3C460.4 477.4 544 415 537 317.9C532.5 262.6 512.5 227.9 475.4 203.7L475.5 203.6Z" fill="#E6E6E6"/>
<path d="M174.4 143.7L173.6 436V440.4C173.6 440.4 173.6 440.4 173.6 440.5C173.6 441.1 174.1 447.1 174.8 451.5C175.6 456.4 175.9 461.4 175.6 466.4C174.7 483.6 179.3 529.2 245.2 561.2C248.3 562.7 257.1 564.8 261.6 555.8C262.3 554.4 263.6 554.2 264.5 555.4C268.4 560.3 275.4 567.5 285.5 572.1C287.3 572.9 288.9 570.4 287.2 569.2C285.9 568.2 286.6 566.2 288.2 566.2C289 566.2 289.8 566.2 290.8 566.2C292.8 566.1 293 563.2 291 562.9C282.4 561.4 272.9 557.6 267.2 548.8C266.9 548.3 266.9 547.7 267.2 547.2C269.6 542.6 279.8 518.9 258.7 480.3C255.1 473.8 250.8 467.6 245.9 462C240.4 455.7 238.5 450.8 238.5 450.8C236.4 447.4 235.9 444 235.9 439.9V436.5L236 146.8C236.3 135.8 236.9 125.5 241 115.8C251.3 91.9001 270.2 72.3001 295.2 64.9001C380.5 39.7001 446.5 142.5 379.4 209.2C379.4 209.2 378.6 210 377 211.3C367.8 218.9 356.3 223.2 344.4 223.7L337.9 224V285.3C357.7 285.3 377.3 281.7 395 272.8C427 256.5 468.4 222.8 468.4 157.3C472.3 -40.6999 189.7 -58.3999 174.6 144L174.4 143.7ZM248.1 496.2C248.1 496.2 265.7 497.3 260.4 528.6C260.4 528.6 234.4 512.4 248.1 496.2Z" fill="#E6E6E6"/>
<path d="M488.148 694.764V606.126C488.148 592.064 499.592 580.621 513.654 580.621H540.517C561.755 580.621 574.362 592.161 574.362 609.424C574.362 626.686 570.289 630.468 560.3 635.026V635.414C573.489 639.293 581.344 649.96 581.344 664.022C581.344 678.084 569.707 694.764 547.984 694.764H511.52V680.218H544.978C557.585 680.218 566.313 671.587 566.313 662.471C566.313 653.355 556.421 644.53 545.366 644.53H528.685L528.491 628.043H541.583C552.445 628.043 562.143 625.037 562.143 612.236C562.143 599.435 553.609 596.429 541.292 596.429H512.393C507.544 596.429 503.568 600.405 503.568 605.254V676.92C503.568 686.812 498.137 694.861 488.245 694.861L488.148 694.764Z" fill="#E6E6E6"/>
<path d="M268.732 723.556H274.799V724.89H268.732V734.166H276.038V735.5H267.271V713.264H276.038V714.598H268.732V723.556ZM290.796 735.5L286.285 725.144L281.774 735.5H280.345L285.364 723.969L280.694 713.264H282.219L286.412 722.826L290.637 713.264H292.035L287.365 723.969L292.352 735.5H290.796ZM296.845 713.264H301.451C304.882 713.264 306.216 715.424 306.216 718.664V721.078C306.216 724.604 304.596 726.351 301.07 726.351H298.306V735.5H296.845V713.264ZM298.306 725.017H301.07C303.643 725.017 304.755 723.874 304.755 721.174V718.569C304.755 716.155 303.929 714.598 301.451 714.598H298.306V725.017ZM312.101 723.556H318.168V724.89H312.101V734.166H319.407V735.5H310.639V713.264H319.407V714.598H312.101V723.556ZM324 713.264H328.637C332.036 713.264 333.402 715.138 333.402 718.283V720.221C333.402 722.826 332.386 724.318 330.194 724.827C332.481 725.335 333.402 726.955 333.402 729.369V732.832C333.402 733.753 333.466 734.769 333.942 735.5H332.417C332.036 734.833 331.941 734.039 331.941 732.832V729.337C331.941 726.383 330.321 725.557 327.78 725.557H325.461V735.5H324V713.264ZM325.461 724.223H327.811C330.416 724.223 331.941 723.493 331.941 720.507V718.41C331.941 716.028 331.02 714.598 328.606 714.598H325.461V724.223ZM338.477 713.264H339.938V735.5H338.477V713.264ZM346.163 723.556H352.23V724.89H346.163V734.166H353.469V735.5H344.702V713.264H353.469V714.598H346.163V723.556ZM359.396 715.678V735.5H358.062V713.264H359.968L366.639 732.038V713.264H367.973V735.5H366.353L359.396 715.678ZM377.395 713.073C380.794 713.073 382.192 715.488 382.192 718.696V720.538H380.794V718.601C380.794 716.218 379.873 714.408 377.427 714.408C374.981 714.408 374.06 716.218 374.06 718.601V730.163C374.06 732.546 374.981 734.325 377.427 734.325C379.873 734.325 380.794 732.546 380.794 730.163V727.527H382.192V730.068C382.192 733.276 380.794 735.691 377.395 735.691C373.996 735.691 372.599 733.276 372.599 730.068V718.696C372.599 715.488 373.996 713.073 377.395 713.073ZM388.26 723.556H394.327V724.89H388.26V734.166H395.566V735.5H386.799V713.264H395.566V714.598H388.26V723.556ZM404.797 713.073C408.164 713.073 409.53 715.424 409.53 718.632V719.109H408.132V718.537C408.132 716.186 407.243 714.408 404.828 714.408C402.414 714.408 401.525 716.155 401.525 718.505C401.525 723.906 409.562 724.001 409.562 730.132C409.562 733.34 408.164 735.691 404.765 735.691C401.366 735.691 399.968 733.34 399.968 730.132V728.988H401.366V730.227C401.366 732.609 402.287 734.325 404.733 734.325C407.179 734.325 408.1 732.609 408.1 730.227C408.1 724.89 400.064 724.795 400.064 718.601C400.064 715.265 401.525 713.105 404.797 713.073Z" fill="#E6E6E6"/>
<path d="M116.972 713.073C120.371 713.073 121.769 715.488 121.769 718.696V720.538H120.371V718.601C120.371 716.218 119.45 714.408 117.004 714.408C114.558 714.408 113.637 716.218 113.637 718.601V730.163C113.637 732.546 114.558 734.325 117.004 734.325C119.45 734.325 120.371 732.546 120.371 730.163V727.527H121.769V730.068C121.769 733.276 120.371 735.691 116.972 735.691C113.573 735.691 112.175 733.276 112.175 730.068V718.696C112.175 715.488 113.573 713.073 116.972 713.073ZM127.773 713.264V730.132C127.773 732.514 128.662 734.356 131.108 734.356C133.554 734.356 134.444 732.514 134.444 730.132V713.264H135.81V730.068C135.81 733.245 134.476 735.691 131.077 735.691C127.678 735.691 126.312 733.245 126.312 730.068V713.264H127.773ZM140.542 713.264H145.18C148.579 713.264 149.945 715.138 149.945 718.283V720.221C149.945 722.826 148.928 724.318 146.736 724.827C149.023 725.335 149.945 726.955 149.945 729.369V732.832C149.945 733.753 150.008 734.769 150.485 735.5H148.96C148.579 734.833 148.483 734.039 148.483 732.832V729.337C148.483 726.383 146.863 725.557 144.322 725.557H142.003V735.5H140.542V713.264ZM142.003 724.223H144.354C146.959 724.223 148.483 723.493 148.483 720.507V718.41C148.483 716.028 147.562 714.598 145.148 714.598H142.003V724.223ZM164.072 730.576H157.147L156.035 735.5H154.701L159.561 713.232H161.69L166.645 735.5H165.184L164.072 730.576ZM160.578 714.916L157.37 729.306H163.85L160.578 714.916ZM175.078 735.5H173.617V714.598H169.106V713.264H179.62V714.598H175.078V735.5ZM183.663 713.264H185.124V735.5H183.663V713.264ZM191.222 715.678V735.5H189.888V713.264H191.794L198.465 732.038V713.264H199.799V735.5H198.179L191.222 715.678ZM209.221 713.073C212.62 713.073 214.018 715.488 214.018 718.696V720.348H212.62V718.601C212.62 716.218 211.699 714.408 209.253 714.408C206.807 714.408 205.886 716.218 205.886 718.601V730.163C205.886 732.546 206.807 734.325 209.253 734.325C211.699 734.325 212.62 732.546 212.62 730.163V725.367H209.666V724.033H214.018V730.068C214.018 733.276 212.62 735.691 209.221 735.691C205.822 735.691 204.425 733.276 204.425 730.068V718.696C204.425 715.488 205.822 713.073 209.221 713.073Z" fill="#E6E6E6"/>
</svg>
