<svg width="692" height="208" viewBox="0 0 692 208" fill="none" xmlns="http://www.w3.org/2000/svg">
<path d="M109 36.8882H154.289C181.54 36.8882 193.565 51.9198 193.565 72.3821C193.565 92.8445 181.54 108.07 154.289 108.07H125.874V128.048C125.874 137.357 118.31 144.922 109 144.922V36.8882ZM154.58 92.5536C170.775 92.5536 176.594 83.9225 176.594 72.3821C176.594 60.8417 170.775 52.4047 154.58 52.4047H125.874V92.5536H154.58Z" fill="#E6E6E6"/>
<path d="M199.869 36.8882H216.743V129.405H261.838C270.372 129.405 277.355 136.388 277.355 144.922H199.869V36.8882Z" fill="#E6E6E6"/>
<path d="M283.718 81.401C283.718 52.7925 300.204 34.8516 330.462 34.8516C360.719 34.8516 377.69 52.8895 377.69 81.401V145.019H360.816V110.785H300.01V128.629C300.01 137.648 292.737 145.019 283.621 145.019V81.401H283.718ZM360.913 95.2689V81.401C360.913 61.9084 350.633 50.3681 330.558 50.3681C310.484 50.3681 300.204 61.9084 300.204 81.401V95.2689H361.01H360.913Z" fill="#E6E6E6"/>
<path d="M386.611 79.5583C386.611 52.1135 403.001 34.7544 432.191 34.7544C461.381 34.7544 477.965 52.1135 477.965 79.5583V144.921H461.09V79.5583C461.09 61.4234 451.199 50.3678 432.191 50.3678C413.183 50.3678 403.486 61.4234 403.486 79.5583V128.629C403.486 137.648 396.212 145.018 387.096 145.018H386.611V79.6552V79.5583Z" fill="#E6E6E6"/>
<path d="M488.148 146.764V58.1263C488.148 44.0645 499.592 32.6211 513.654 32.6211H540.517C561.755 32.6211 574.362 44.1615 574.362 61.4236C574.362 78.6857 570.289 82.4679 560.3 87.0258V87.4137C573.489 91.2928 581.344 101.96 581.344 116.022C581.344 130.084 569.707 146.764 547.984 146.764H511.52V132.218H544.978C557.585 132.218 566.313 123.587 566.313 114.471C566.313 105.355 556.421 96.5297 545.366 96.5297H528.685L528.491 80.0434H541.583C552.445 80.0434 562.143 77.0371 562.143 64.236C562.143 51.4349 553.609 48.4285 541.292 48.4285H512.393C507.544 48.4285 503.568 52.4046 503.568 57.2536V128.92C503.568 138.812 498.137 146.861 488.245 146.861L488.148 146.764Z" fill="#E6E6E6"/>
</svg>
