<svg width="692" height="210" viewBox="0 0 692 210" fill="none" xmlns="http://www.w3.org/2000/svg">
<path d="M488.148 148.764V60.1263C488.148 46.0645 499.592 34.6211 513.654 34.6211H540.517C561.755 34.6211 574.362 46.1615 574.362 63.4236C574.362 80.6857 570.289 84.4679 560.3 89.0258V89.4137C573.489 93.2928 581.344 103.96 581.344 118.022C581.344 132.084 569.707 148.764 547.984 148.764H511.52V134.218H544.978C557.585 134.218 566.313 125.587 566.313 116.471C566.313 107.355 556.421 98.5297 545.366 98.5297H528.685L528.491 82.0434H541.583C552.445 82.0434 562.143 79.0371 562.143 66.236C562.143 53.4349 553.609 50.4285 541.292 50.4285H512.393C507.544 50.4285 503.568 54.4046 503.568 59.2536V130.92C503.568 140.812 498.137 148.861 488.245 148.861L488.148 148.764Z" fill="#1A1A1A"/>
<path d="M386.611 81.5583C386.611 54.1135 403.001 36.7544 432.191 36.7544C461.381 36.7544 477.965 54.1135 477.965 81.5583V146.921H461.09V81.5583C461.09 63.4234 451.199 52.3678 432.191 52.3678C413.183 52.3678 403.486 63.4234 403.486 81.5583V130.629C403.486 139.648 396.212 147.018 387.096 147.018H386.611V81.6552V81.5583Z" fill="#1A1A1A"/>
<path d="M283.718 83.401C283.718 54.7925 300.204 36.8516 330.462 36.8516C360.719 36.8516 377.69 54.8895 377.69 83.401V147.019H360.816V112.785H300.01V130.629C300.01 139.648 292.737 147.019 283.621 147.019V83.401H283.718ZM360.913 97.2689V83.401C360.913 63.9084 350.633 52.3681 330.558 52.3681C310.484 52.3681 300.204 63.9084 300.204 83.401V97.2689H361.01H360.913Z" fill="#1A1A1A"/>
<path d="M109 38.8882H154.289C181.54 38.8882 193.565 53.9198 193.565 74.3821C193.565 94.8445 181.54 110.07 154.289 110.07H125.874V130.048C125.874 139.357 118.31 146.922 109 146.922V38.8882ZM154.58 94.5536C170.775 94.5536 176.594 85.9225 176.594 74.3821C176.594 62.8417 170.775 54.4047 154.58 54.4047H125.874V94.5536H154.58Z" fill="#1A1A1A"/>
<path d="M199.869 38.8882H216.743V131.405H261.838C270.372 131.405 277.355 138.388 277.355 146.922H199.869V38.8882Z" fill="#1A1A1A"/>
</svg>
