<svg width="692" height="198" viewBox="0 0 692 198" fill="none" xmlns="http://www.w3.org/2000/svg">
<g clip-path="url(#clip0_32_605)">
<path d="M686.538 123.537C688.187 123.052 690.611 122.179 692.842 120.239C693.23 119.852 692.842 119.27 692.357 119.561C691.969 119.755 691.581 119.367 691.678 118.979C691.678 118.785 691.872 118.591 691.969 118.3C692.163 117.815 691.484 117.427 691.193 117.912C689.932 119.852 687.993 121.791 685.18 122.179C684.986 122.179 684.889 122.179 684.792 121.985C683.92 120.918 679.168 115.875 667.433 116.942C665.494 117.136 663.651 117.524 661.809 118.106C659.675 118.785 658.317 118.688 658.317 118.688C657.251 118.882 656.378 118.688 655.408 118.203L654.632 117.912L632.327 79.6056L655.311 40.6203L655.99 40.2325C656.96 39.6506 657.736 39.2627 658.802 39.2627C658.802 39.2627 660.16 38.9717 662.391 39.2627C664.33 39.5536 666.27 39.6506 668.306 39.5536C679.944 38.7778 683.823 33.056 684.502 31.8923C684.502 31.7953 684.695 31.6984 684.889 31.6984C687.702 31.6984 689.932 33.347 691.484 34.9956C691.872 35.3835 692.454 34.9956 692.163 34.5107C692.066 34.3168 691.969 34.1228 691.775 33.9289C691.581 33.541 691.872 33.1531 692.357 33.25C692.842 33.444 693.23 32.7652 692.745 32.4742C690.32 30.9226 687.702 30.3407 686.053 30.1467C685.665 30.1467 685.471 29.7588 685.762 29.4679C687.12 27.1404 685.374 25.4918 684.599 25.0069C668.015 14.8242 657.154 20.255 653.469 22.9704C653.372 22.9704 653.081 23.2613 652.693 23.4553C645.71 27.6253 641.249 33.6379 636.594 41.2022L622.92 63.3132L607.307 39.8444C603.525 33.3469 591.887 12.3999 559.885 12.3999C537.095 12.3999 519.445 27.8191 515.469 55.9429C515.178 57.4946 514.984 126.737 514.984 128.289V134.786C524.197 134.786 531.567 127.319 531.567 118.203V83.1938H562.794V68.5501H531.858V58.9493C533.022 51.385 538.55 29.3711 559.4 29.3711C575.886 29.3711 579.668 34.6082 585.099 40.5235C589.195 44.9846 611.38 77.5693 613.223 79.7998L612.835 79.6056L578.601 134.786L599.937 134.495L622.436 96.4798L636.013 120.239C640.57 127.028 647.068 132.265 654.632 135.271C655.02 135.465 655.311 135.562 655.505 135.659C659.578 137.695 671.119 141.381 685.956 128.774C686.635 128.192 688.09 126.252 686.344 124.216C686.053 123.925 686.15 123.537 686.538 123.44V123.537ZM679.459 33.0561C673.252 38.6808 670.44 34.8987 670.44 34.8987C672.088 29.5649 679.459 33.0561 679.459 33.0561ZM670.44 121.209C670.44 121.209 672.573 117.039 679.653 121.694C679.653 121.694 672.961 126.349 670.44 121.209Z" fill="#E6E6E6"/>
<path d="M1 27.3347H46.2888C73.5396 27.3347 85.5649 42.3663 85.5649 62.8287C85.5649 83.291 73.5396 98.5166 46.2888 98.5166H17.8742V118.494C17.8742 127.804 10.3099 135.368 1 135.368L1 27.3347ZM46.5797 83.0001C62.775 83.0001 68.5937 74.3691 68.5937 62.8287C68.5937 51.2883 62.775 42.8512 46.5797 42.8512H17.8742V83.0001H46.5797Z" fill="#E6E6E6"/>
<path d="M91.8682 27.3347H108.742V119.852H153.837C162.371 119.852 169.354 126.834 169.354 135.368H91.8682V27.3347Z" fill="#E6E6E6"/>
<path d="M173.718 71.8476C173.718 43.239 190.204 25.2981 220.462 25.2981C250.719 25.2981 267.69 43.336 267.69 71.8476V135.465H250.816V101.232H190.01V119.076C190.01 128.095 182.737 135.465 173.621 135.465V71.8476H173.718ZM250.913 85.7154V71.8476C250.913 52.355 240.633 40.8146 220.558 40.8146C200.484 40.8146 190.204 52.355 190.204 71.8476V85.7154H251.01H250.913Z" fill="#E6E6E6"/>
<path d="M276.612 70.0048C276.612 42.56 293.001 25.2009 322.192 25.2009C351.382 25.2009 367.965 42.56 367.965 70.0048V135.368H351.091V70.0048C351.091 51.8699 341.199 40.8144 322.192 40.8144C303.184 40.8144 293.486 51.8699 293.486 70.0048V119.076C293.486 128.095 286.213 135.465 277.097 135.465H276.612V70.1018V70.0048Z" fill="#E6E6E6"/>
<path d="M378.148 137.211V48.5729C378.148 34.511 389.591 23.0676 403.653 23.0676H430.516C451.754 23.0676 464.361 34.608 464.361 51.8701C464.361 69.1322 460.288 72.9144 450.3 77.4724V77.8602C463.489 81.7394 471.344 92.407 471.344 106.469C471.344 120.531 459.707 137.211 437.983 137.211H401.52V122.664H434.977C447.584 122.664 456.312 114.033 456.312 104.917C456.312 95.8012 446.421 86.9762 435.365 86.9762H418.685L418.491 70.4899H431.583C442.444 70.4899 452.142 67.4836 452.142 54.6825C452.142 41.8814 443.608 38.875 431.292 38.875H402.392C397.544 38.875 393.567 42.8512 393.567 47.7001V119.367C393.567 129.259 388.137 137.308 378.245 137.308L378.148 137.211Z" fill="#E6E6E6"/>
<circle cx="489.77" cy="77.3752" r="8.72803" fill="#E6E6E6"/>
</g>
<defs>
<clipPath id="clip0_32_605">
<rect width="692" height="198" fill="white"/>
</clipPath>
</defs>
</svg>
