<svg width="692" height="198" viewBox="0 0 692 198" fill="none" xmlns="http://www.w3.org/2000/svg">
<g clip-path="url(#clip0_3_123)">
<path d="M686.538 123.537C688.187 123.052 690.611 122.179 692.842 120.239C693.23 119.852 692.842 119.27 692.357 119.561C691.969 119.755 691.581 119.367 691.678 118.979C691.678 118.785 691.872 118.591 691.969 118.3C692.163 117.815 691.484 117.427 691.193 117.912C689.932 119.852 687.993 121.791 685.18 122.179C684.986 122.179 684.889 122.179 684.792 121.985C683.92 120.918 679.168 115.875 667.433 116.942C665.494 117.136 663.651 117.524 661.809 118.106C659.675 118.785 658.317 118.688 658.317 118.688C657.251 118.882 656.378 118.688 655.408 118.203L654.632 117.912L632.327 79.6056L655.311 40.6203L655.99 40.2325C656.96 39.6506 657.736 39.2627 658.802 39.2627C658.802 39.2627 660.16 38.9717 662.391 39.2627C664.33 39.5536 666.27 39.6506 668.306 39.5536C679.944 38.7778 683.823 33.056 684.502 31.8923C684.502 31.7953 684.695 31.6984 684.889 31.6984C687.702 31.6984 689.932 33.347 691.484 34.9956C691.872 35.3835 692.454 34.9956 692.163 34.5107C692.066 34.3168 691.969 34.1228 691.775 33.9289C691.581 33.541 691.872 33.1531 692.357 33.25C692.842 33.444 693.23 32.7652 692.745 32.4742C690.32 30.9226 687.702 30.3407 686.053 30.1467C685.665 30.1467 685.471 29.7588 685.762 29.4679C687.12 27.1404 685.374 25.4918 684.599 25.0069C668.015 14.8242 657.154 20.255 653.469 22.9704C653.372 22.9704 653.081 23.2613 652.693 23.4553C645.71 27.6253 641.249 33.6379 636.594 41.2022L622.92 63.3132L607.307 39.8444C603.525 33.3469 591.887 12.3999 559.885 12.3999C537.095 12.3999 519.445 27.8191 515.469 55.9429C515.178 57.4946 514.984 126.737 514.984 128.289V134.786C524.197 134.786 531.567 127.319 531.567 118.203V83.1938H562.794V68.5501H531.858V58.9493C533.022 51.385 538.55 29.3711 559.4 29.3711C575.886 29.3711 579.668 34.6082 585.099 40.5235C589.195 44.9846 611.38 77.5693 613.223 79.7998L612.835 79.6056L578.601 134.786L599.937 134.495L622.436 96.4798L636.013 120.239C640.57 127.028 647.068 132.265 654.632 135.271C655.02 135.465 655.311 135.562 655.505 135.659C659.578 137.695 671.119 141.381 685.956 128.774C686.635 128.192 688.09 126.252 686.344 124.216C686.053 123.925 686.15 123.537 686.538 123.44V123.537ZM679.459 33.0561C673.252 38.6808 670.44 34.8987 670.44 34.8987C672.088 29.5649 679.459 33.0561 679.459 33.0561ZM670.44 121.209C670.44 121.209 672.573 117.039 679.653 121.694C679.653 121.694 672.961 126.349 670.44 121.209Z" fill="#E6E6E6"/>
<path d="M1 27.3347H46.2888C73.5396 27.3347 85.5649 42.3663 85.5649 62.8287C85.5649 83.291 73.5396 98.5166 46.2888 98.5166H17.8742V118.494C17.8742 127.804 10.3099 135.368 1 135.368L1 27.3347ZM46.5797 83.0001C62.775 83.0001 68.5937 74.3691 68.5937 62.8287C68.5937 51.2883 62.775 42.8512 46.5797 42.8512H17.8742V83.0001H46.5797Z" fill="#E6E6E6"/>
<path d="M91.8682 27.3347H108.742V119.852H153.837C162.371 119.852 169.354 126.834 169.354 135.368H91.8682V27.3347Z" fill="#E6E6E6"/>
<path d="M173.718 71.8476C173.718 43.239 190.204 25.2981 220.462 25.2981C250.719 25.2981 267.69 43.336 267.69 71.8476V135.465H250.816V101.232H190.01V119.076C190.01 128.095 182.737 135.465 173.621 135.465V71.8476H173.718ZM250.913 85.7154V71.8476C250.913 52.355 240.633 40.8146 220.558 40.8146C200.484 40.8146 190.204 52.355 190.204 71.8476V85.7154H251.01H250.913Z" fill="#E6E6E6"/>
<path d="M276.612 70.0048C276.612 42.56 293.001 25.2009 322.192 25.2009C351.382 25.2009 367.965 42.56 367.965 70.0048V135.368H351.091V70.0048C351.091 51.8699 341.199 40.8144 322.192 40.8144C303.184 40.8144 293.486 51.8699 293.486 70.0048V119.076C293.486 128.095 286.213 135.465 277.097 135.465H276.612V70.1018V70.0048Z" fill="#E6E6E6"/>
<path d="M378.148 137.211V48.5729C378.148 34.511 389.591 23.0676 403.653 23.0676H430.516C451.754 23.0676 464.361 34.608 464.361 51.8701C464.361 69.1322 460.288 72.9144 450.3 77.4724V77.8602C463.489 81.7394 471.344 92.407 471.344 106.469C471.344 120.531 459.707 137.211 437.983 137.211H401.52V122.664H434.977C447.584 122.664 456.312 114.033 456.312 104.917C456.312 95.8012 446.421 86.9762 435.365 86.9762H418.685L418.491 70.4899H431.583C442.444 70.4899 452.142 67.4836 452.142 54.6825C452.142 41.8814 443.608 38.875 431.292 38.875H402.392C397.544 38.875 393.567 42.8512 393.567 47.7001V119.367C393.567 129.259 388.137 137.308 378.245 137.308L378.148 137.211Z" fill="#E6E6E6"/>
<circle cx="489.77" cy="77.3752" r="8.72803" fill="#E6E6E6"/>
<path d="M5.97194 167.573C9.37086 167.573 10.7686 169.988 10.7686 173.196V175.038H9.37086V173.101C9.37086 170.718 8.44966 168.908 6.00371 168.908C3.55775 168.908 2.63655 170.718 2.63655 173.101V184.663C2.63655 187.046 3.55775 188.825 6.00371 188.825C8.44966 188.825 9.37086 187.046 9.37086 184.663V182.027H10.7686V184.568C10.7686 187.776 9.37086 190.191 5.97194 190.191C2.57302 190.191 1.17533 187.776 1.17533 184.568V173.196C1.17533 169.988 2.57302 167.573 5.97194 167.573ZM16.773 167.764V184.632C16.773 187.014 17.6624 188.856 20.1084 188.856C22.5543 188.856 23.4438 187.014 23.4438 184.632V167.764H24.8097V184.568C24.8097 187.745 23.4755 190.191 20.0766 190.191C16.6777 190.191 15.3118 187.745 15.3118 184.568V167.764H16.773ZM34.1798 167.573C37.547 167.573 38.9129 169.924 38.9129 173.132V173.609H37.5152V173.037C37.5152 170.686 36.6258 168.908 34.2116 168.908C31.7974 168.908 30.908 170.655 30.908 173.005C30.908 178.406 38.9447 178.501 38.9447 184.632C38.9447 187.84 37.547 190.191 34.1481 190.191C30.7491 190.191 29.3514 187.84 29.3514 184.632V183.488H30.7491V184.727C30.7491 187.109 31.6703 188.825 34.1163 188.825C36.5622 188.825 37.4835 187.109 37.4835 184.727C37.4835 179.39 29.4467 179.295 29.4467 173.101C29.4467 169.765 30.908 167.605 34.1798 167.573ZM48.8275 190H47.3663V169.098H42.8238V167.764H53.3382V169.098H48.8275V190ZM57.3769 184.568V173.196C57.3769 169.956 58.8699 167.573 62.2371 167.573C65.6678 167.573 67.1607 169.956 67.1607 173.196V184.568C67.1607 187.808 65.6678 190.191 62.2371 190.191C58.8699 190.191 57.3769 187.808 57.3769 184.568ZM58.8381 173.101V184.663C58.8381 187.078 59.7911 188.856 62.2371 188.856C64.7148 188.856 65.6995 187.078 65.6995 184.663V173.101C65.6995 170.686 64.7148 168.908 62.2371 168.908C59.7911 168.908 58.8381 170.686 58.8381 173.101ZM83.8968 170.242L79.259 189.968H77.7978L73.0964 170.305V190H71.7941V167.764H73.8906L78.5601 187.427L83.1979 167.764H85.2945V190H83.8968V170.242Z" fill="#E6E6E6"/>
<path d="M142.514 167.764H143.975V190H142.514V167.764ZM150.074 170.178V190H148.74V167.764H150.646L157.316 186.538V167.764H158.65V190H157.03L150.074 170.178ZM168.581 190H167.12V169.098H162.609V167.764H173.124V169.098H168.581V190ZM178.627 178.056H184.695V179.39H178.627V188.666H185.933V190H177.166V167.764H185.933V169.098H178.627V178.056ZM190.526 167.764H195.164C198.563 167.764 199.929 169.638 199.929 172.783V174.721C199.929 177.326 198.912 178.818 196.721 179.327C199.008 179.835 199.929 181.455 199.929 183.869V187.332C199.929 188.253 199.992 189.269 200.469 190H198.944C198.563 189.333 198.468 188.539 198.468 187.332V183.837C198.468 180.883 196.848 180.057 194.306 180.057H191.988V190H190.526V167.764ZM191.988 178.723H194.338C196.943 178.723 198.468 177.993 198.468 175.007V172.91C198.468 170.528 197.547 169.098 195.132 169.098H191.988V178.723ZM214.056 185.076H207.132L206.02 190H204.686L209.546 167.732H211.674L216.629 190H215.168L214.056 185.076ZM210.562 169.416L207.354 183.806H213.834L210.562 169.416ZM225.733 167.573C229.131 167.573 230.529 169.988 230.529 173.196V175.038H229.131V173.101C229.131 170.718 228.21 168.908 225.764 168.908C223.318 168.908 222.397 170.718 222.397 173.101V184.663C222.397 187.046 223.318 188.825 225.764 188.825C228.21 188.825 229.131 187.046 229.131 184.663V182.027H230.529V184.568C230.529 187.776 229.131 190.191 225.733 190.191C222.334 190.191 220.936 187.776 220.936 184.568V173.196C220.936 169.988 222.334 167.573 225.733 167.573ZM240.345 190H238.884V169.098H234.374V167.764H244.888V169.098H240.345V190ZM248.93 167.764H250.392V190H248.93V167.764ZM254.838 167.764H256.331L260.842 188.316L265.352 167.764H266.718L261.89 190H259.73L254.838 167.764ZM272.614 178.056H278.681V179.39H272.614V188.666H279.92V190H271.153V167.764H279.92V169.098H272.614V178.056Z" fill="#E6E6E6"/>
<path d="M327.43 178.056H333.497V179.39H327.43V188.666H334.736V190H325.968V167.764H334.736V169.098H327.43V178.056ZM349.494 190L344.983 179.644L340.472 190H339.043L344.062 178.469L339.392 167.764H340.917L345.11 177.326L349.335 167.764H350.732L346.063 178.469L351.05 190H349.494ZM355.543 167.764H360.149C363.579 167.764 364.914 169.924 364.914 173.164V175.578C364.914 179.104 363.293 180.851 359.768 180.851H357.004V190H355.543V167.764ZM357.004 179.517H359.768C362.341 179.517 363.452 178.374 363.452 175.674V173.069C363.452 170.655 362.626 169.098 360.149 169.098H357.004V179.517ZM370.798 178.056H376.866V179.39H370.798V188.666H378.104V190H369.337V167.764H378.104V169.098H370.798V178.056ZM382.697 167.764H387.335C390.734 167.764 392.1 169.638 392.1 172.783V174.721C392.1 177.326 391.083 178.818 388.892 179.327C391.179 179.835 392.1 181.455 392.1 183.869V187.332C392.1 188.253 392.163 189.269 392.64 190H391.115C390.734 189.333 390.639 188.539 390.639 187.332V183.837C390.639 180.883 389.019 180.057 386.477 180.057H384.159V190H382.697V167.764ZM384.159 178.723H386.509C389.114 178.723 390.639 177.993 390.639 175.007V172.91C390.639 170.528 389.718 169.098 387.303 169.098H384.159V178.723ZM397.174 167.764H398.635V190H397.174V167.764ZM404.861 178.056H410.928V179.39H404.861V188.666H412.167V190H403.4V167.764H412.167V169.098H404.861V178.056ZM418.094 170.178V190H416.76V167.764H418.666L425.336 186.538V167.764H426.671V190H425.051L418.094 170.178ZM436.093 167.573C439.492 167.573 440.89 169.988 440.89 173.196V175.038H439.492V173.101C439.492 170.718 438.571 168.908 436.125 168.908C433.679 168.908 432.758 170.718 432.758 173.101V184.663C432.758 187.046 433.679 188.825 436.125 188.825C438.571 188.825 439.492 187.046 439.492 184.663V182.027H440.89V184.568C440.89 187.776 439.492 190.191 436.093 190.191C432.694 190.191 431.297 187.776 431.297 184.568V173.196C431.297 169.988 432.694 167.573 436.093 167.573ZM446.958 178.056H453.025V179.39H446.958V188.666H454.264V190H445.497V167.764H454.264V169.098H446.958V178.056ZM463.494 167.573C466.862 167.573 468.228 169.924 468.228 173.132V173.609H466.83V173.037C466.83 170.686 465.94 168.908 463.526 168.908C461.112 168.908 460.223 170.655 460.223 173.005C460.223 178.406 468.259 178.501 468.259 184.632C468.259 187.84 466.862 190.191 463.463 190.191C460.064 190.191 458.666 187.84 458.666 184.632V183.488H460.064V184.727C460.064 187.109 460.985 188.825 463.431 188.825C465.877 188.825 466.798 187.109 466.798 184.727C466.798 179.39 458.761 179.295 458.761 173.101C458.761 169.765 460.223 167.605 463.494 167.573Z" fill="#E6E6E6"/>
</g>
<defs>
<clipPath id="clip0_3_123">
<rect width="692" height="198" fill="white"/>
</clipPath>
</defs>
</svg>
